<svg version="1.1" xmlns="http://www.w3.org/2000/svg" viewBox="0 0 518.2326305125716 199.6978995070761" width="518.2326305125716" height="199.6978995070761" class="excalidraw-svg"><!-- svg-source:excalidraw --><metadata></metadata><defs><style class="style-fonts">
      </style></defs><rect x="0" y="0" width="518.2326305125716" height="199.6978995070761" fill="#ffffff"></rect><g transform="translate(49.28272297046129 16.996957465315234) rotate(0 4.006453067939987 18.244445783044256)" stroke="none"><path fill="#1e1e1e" d="M -0.47,0.45 Q -0.47,0.45 -1.05,0.18 -1.63,-0.07 -1.83,-0.11 -2.03,-0.15 -2.12,-0.28 -2.21,-0.40 -2.27,-0.54 -2.33,-0.69 -2.36,-0.84 -2.38,-0.99 -2.37,-1.15 -2.35,-1.30 -2.30,-1.45 -2.25,-1.60 -2.17,-1.73 -2.09,-1.86 -1.98,-1.96 -1.86,-2.07 -1.73,-2.15 -1.59,-2.23 -1.44,-2.27 -1.30,-2.31 -1.14,-2.32 -0.99,-2.32 -0.83,-2.29 -0.68,-2.26 -0.54,-2.19 -0.40,-2.12 -0.28,-2.03 -0.16,-1.93 0.01,-0.62 0.18,0.67 0.10,3.73 0.02,6.78 -0.43,12.08 -0.89,17.37 -1.28,22.23 -1.67,27.09 -1.76,30.22 -1.85,33.34 -1.59,34.70 -1.33,36.05 -1.36,36.25 -1.39,36.44 -1.47,36.63 -1.55,36.81 -1.66,36.97 -1.78,37.13 -1.94,37.25 -2.09,37.38 -2.27,37.46 -2.45,37.55 -2.64,37.59 -2.83,37.63 -3.03,37.62 -3.23,37.62 -3.42,37.56 -3.61,37.51 -3.78,37.41 -3.95,37.31 -4.10,37.17 -4.24,37.04 -4.35,36.87 -4.45,36.70 -4.52,36.52 -4.58,36.33 -4.60,36.13 -4.61,35.93 -3.43,34.61 -2.24,33.28 -0.85,29.94 0.54,26.60 2.07,22.58 3.59,18.55 5.24,14.49 6.89,10.42 7.98,7.65 9.07,4.87 10.05,3.73 11.03,2.59 11.07,2.52 11.10,2.45 11.15,2.39 11.20,2.33 11.27,2.28 11.33,2.24 11.40,2.21 11.48,2.17 11.56,2.16 11.63,2.15 11.71,2.16 11.79,2.16 11.87,2.19 11.94,2.22 12.01,2.26 12.07,2.30 12.13,2.36 12.18,2.42 12.22,2.48 12.26,2.55 12.28,2.63 12.30,2.71 12.31,2.79 12.31,2.86 12.29,2.94 12.28,3.02 12.29,2.89 12.31,2.77 12.30,2.87 12.29,2.98 12.25,3.08 12.20,3.17 12.13,3.25 12.06,3.33 11.96,3.38 11.87,3.43 11.76,3.45 11.66,3.46 11.55,3.45 11.45,3.43 11.36,3.38 11.26,3.33 11.19,3.26 11.11,3.18 11.07,3.08 11.02,2.99 11.01,2.88 11.00,2.78 11.02,2.67 11.04,2.57 11.10,2.48 11.15,2.38 11.23,2.32 11.31,2.25 11.41,2.21 11.51,2.17 11.62,2.16 11.72,2.15 11.83,2.18 11.93,2.21 12.02,2.27 12.10,2.33 12.17,2.41 12.23,2.50 12.27,2.60 12.30,2.70 12.30,2.80 12.30,2.91 12.27,3.01 12.24,3.11 12.17,3.20 12.11,3.28 12.02,3.34 11.94,3.40 11.83,3.43 11.73,3.46 11.62,3.45 11.52,3.45 11.42,3.41 11.32,3.37 11.24,3.30 11.16,3.23 11.10,3.14 11.05,3.05 11.04,2.82 11.03,2.59 11.07,2.52 11.10,2.45 11.15,2.39 11.20,2.33 11.27,2.28 11.33,2.24 11.40,2.21 11.48,2.17 11.56,2.16 11.63,2.15 11.71,2.16 11.79,2.16 11.87,2.19 11.94,2.22 12.01,2.26 12.07,2.30 12.13,2.36 12.18,2.42 12.22,2.48 12.26,2.55 12.28,2.63 12.30,2.71 12.31,2.79 12.31,2.86 12.29,2.94 12.28,3.02 11.76,4.32 11.24,5.62 10.39,8.53 9.54,11.45 8.02,15.54 6.51,19.64 5.00,23.76 3.49,27.89 1.71,31.78 -0.05,35.66 -0.69,35.86 -1.33,36.05 -1.36,36.25 -1.39,36.44 -1.47,36.63 -1.55,36.81 -1.66,36.97 -1.78,37.13 -1.94,37.25 -2.09,37.38 -2.27,37.46 -2.45,37.55 -2.64,37.59 -2.83,37.63 -3.03,37.62 -3.23,37.62 -3.42,37.56 -3.61,37.51 -3.78,37.41 -3.95,37.31 -4.10,37.17 -4.24,37.04 -4.35,36.87 -4.45,36.70 -4.52,36.52 -4.58,36.33 -4.60,36.13 -4.61,35.93 -4.86,34.59 -5.11,33.25 -4.97,30.02 -4.83,26.80 -4.34,21.94 -3.84,17.08 -3.28,11.89 -2.71,6.69 -2.37,3.26 -2.03,-0.15 -2.12,-0.28 -2.21,-0.40 -2.27,-0.54 -2.33,-0.69 -2.36,-0.84 -2.38,-0.99 -2.37,-1.15 -2.35,-1.30 -2.30,-1.45 -2.25,-1.60 -2.17,-1.73 -2.09,-1.86 -1.98,-1.96 -1.86,-2.07 -1.73,-2.15 -1.59,-2.23 -1.44,-2.27 -1.30,-2.31 -1.14,-2.32 -0.99,-2.32 -0.83,-2.29 -0.68,-2.26 -0.54,-2.19 -0.40,-2.12 -0.28,-2.03 -0.16,-1.93 -0.08,-1.79 -0.00,-1.65 0.23,-1.05 0.47,-0.45 0.52,-0.38 0.56,-0.32 0.60,-0.25 0.63,-0.18 0.64,-0.10 0.65,-0.02 0.64,0.05 0.64,0.13 0.61,0.20 0.59,0.28 0.54,0.35 0.50,0.41 0.44,0.47 0.39,0.52 0.32,0.56 0.25,0.60 0.17,0.62 0.10,0.64 0.02,0.65 -0.05,0.65 -0.13,0.63 -0.21,0.62 -0.28,0.58 -0.35,0.55 -0.41,0.50 -0.47,0.45 -0.47,0.45 L -0.47,0.45 Z"></path></g><g transform="translate(53.51718514616425 37.39934750434344) rotate(0 12.96395373005609 5.754518015957302)" stroke="none"><path fill="#1e1e1e" d="M 0.67,-0.14 Q 0.67,-0.14 1.22,1.46 1.77,3.07 2.43,5.30 3.09,7.52 3.96,9.38 4.83,11.25 5.88,12.09 6.94,12.92 7.94,12.86 8.94,12.80 9.95,11.61 10.95,10.41 11.71,8.78 12.48,7.14 12.86,5.47 13.24,3.80 13.34,2.91 13.45,2.01 13.50,1.88 13.55,1.74 13.63,1.62 13.71,1.50 13.82,1.40 13.93,1.30 14.06,1.24 14.19,1.17 14.33,1.13 14.47,1.10 14.62,1.09 14.76,1.09 14.90,1.13 15.05,1.16 15.18,1.23 15.31,1.29 15.42,1.39 15.53,1.49 15.61,1.61 15.69,1.73 15.75,1.86 15.80,2.00 15.82,2.14 15.84,2.29 15.82,2.43 15.80,2.58 16.06,3.81 16.32,5.04 16.92,6.64 17.52,8.24 18.23,9.07 18.94,9.91 19.89,9.88 20.84,9.85 21.68,9.03 22.52,8.22 23.15,6.40 23.78,4.58 23.75,2.80 23.72,1.02 22.98,-0.00 22.23,-1.04 21.31,-1.25 20.39,-1.45 19.38,-0.93 18.37,-0.41 17.57,0.74 16.77,1.89 16.03,4.29 15.29,6.69 15.25,6.79 15.21,6.89 15.13,6.97 15.06,7.05 14.97,7.10 14.88,7.15 14.77,7.17 14.67,7.19 14.56,7.18 14.46,7.16 14.36,7.11 14.27,7.07 14.19,6.99 14.12,6.92 14.07,6.82 14.02,6.73 14.01,6.62 14.00,6.51 14.02,6.41 14.04,6.31 14.09,6.21 14.14,6.12 14.22,6.05 14.30,5.98 14.40,5.94 14.50,5.90 14.60,5.89 14.71,5.88 14.81,5.91 14.91,5.93 15.00,5.99 15.09,6.05 15.16,6.13 15.23,6.21 15.26,6.31 15.30,6.41 15.30,6.52 15.30,6.62 15.27,6.73 15.24,6.83 15.18,6.91 15.12,7.00 15.03,7.06 14.94,7.12 14.84,7.15 14.74,7.19 14.63,7.18 14.53,7.18 14.43,7.14 14.33,7.10 14.25,7.04 14.16,6.97 14.11,6.88 14.05,6.79 14.02,6.69 14.00,6.59 14.01,6.48 14.02,6.37 14.02,6.37 14.02,6.37 14.57,3.62 15.13,0.86 16.18,-0.79 17.22,-2.46 18.96,-3.17 20.70,-3.88 22.38,-3.28 24.06,-2.68 25.11,-0.93 26.16,0.81 26.12,3.11 26.09,5.41 25.12,7.70 24.15,9.99 22.64,11.07 21.13,12.14 19.37,11.95 17.61,11.76 16.43,10.45 15.25,9.13 14.58,7.28 13.91,5.42 13.68,3.72 13.45,2.01 13.50,1.88 13.55,1.74 13.63,1.62 13.71,1.50 13.82,1.40 13.93,1.30 14.06,1.24 14.19,1.17 14.33,1.13 14.47,1.10 14.62,1.09 14.76,1.09 14.90,1.13 15.05,1.16 15.18,1.23 15.31,1.29 15.42,1.39 15.53,1.49 15.61,1.61 15.69,1.73 15.75,1.86 15.80,2.00 15.82,2.14 15.84,2.29 15.82,2.43 15.80,2.58 15.69,3.47 15.58,4.36 15.11,6.27 14.63,8.19 13.64,10.12 12.66,12.05 11.04,13.49 9.43,14.93 7.62,14.89 5.80,14.84 4.28,13.58 2.77,12.32 1.82,10.23 0.88,8.15 0.26,5.84 -0.35,3.53 -0.51,1.84 -0.67,0.14 -0.67,0.06 -0.68,-0.02 -0.67,-0.10 -0.66,-0.18 -0.62,-0.26 -0.59,-0.33 -0.54,-0.40 -0.50,-0.47 -0.43,-0.52 -0.37,-0.57 -0.29,-0.61 -0.22,-0.64 -0.14,-0.66 -0.06,-0.68 0.02,-0.68 0.10,-0.67 0.18,-0.65 0.26,-0.63 0.33,-0.59 0.40,-0.55 0.46,-0.49 0.52,-0.43 0.57,-0.37 0.61,-0.30 0.64,-0.22 0.67,-0.14 0.67,-0.14 L 0.67,-0.14 Z"></path></g><g transform="translate(73.51684848719157 46.81584084331655) rotate(0 47.06762365720232 -13.241935983354836)" stroke="none"><path fill="#1e1e1e" d="M -0.28,-0.58 Q -0.28,-0.58 0.44,-1.03 1.17,-1.47 1.99,-2.10 2.81,-2.72 3.79,-3.65 4.78,-4.57 5.68,-5.32 6.58,-6.06 7.54,-6.57 8.49,-7.08 9.49,-7.05 10.50,-7.01 11.33,-6.39 12.17,-5.76 12.77,-5.27 13.37,-4.77 14.04,-4.78 14.70,-4.79 15.82,-5.75 16.94,-6.70 18.09,-8.38 19.24,-10.06 20.01,-11.77 20.78,-13.48 20.99,-14.47 21.20,-15.46 21.02,-15.86 20.85,-16.27 20.89,-16.39 20.93,-16.52 21.00,-16.63 21.07,-16.74 21.17,-16.83 21.26,-16.93 21.38,-16.99 21.49,-17.06 21.62,-17.10 21.75,-17.13 21.88,-17.14 22.01,-17.14 22.14,-17.12 22.27,-17.09 22.39,-17.04 22.51,-16.98 22.61,-16.90 22.72,-16.81 22.80,-16.71 22.88,-16.60 22.93,-16.48 22.98,-16.36 23.00,-16.23 23.03,-16.10 23.01,-15.97 23.00,-15.83 22.67,-15.09 22.34,-14.35 22.26,-13.07 22.19,-11.80 22.44,-10.33 22.70,-8.87 23.26,-8.01 23.83,-7.14 24.50,-6.96 25.17,-6.78 26.03,-7.16 26.90,-7.53 27.82,-8.41 28.75,-9.30 29.57,-10.52 30.38,-11.74 30.83,-12.82 31.27,-13.91 31.44,-14.55 31.61,-15.19 31.73,-15.46 31.85,-15.72 31.90,-15.84 31.95,-15.96 32.03,-16.07 32.11,-16.18 32.21,-16.26 32.31,-16.35 32.43,-16.41 32.55,-16.47 32.68,-16.49 32.81,-16.52 32.94,-16.52 33.07,-16.52 33.20,-16.48 33.33,-16.45 33.44,-16.38 33.56,-16.32 33.65,-16.23 33.75,-16.14 33.82,-16.03 33.90,-15.92 33.94,-15.79 33.99,-15.67 34.00,-15.54 34.01,-15.40 33.99,-15.27 33.97,-15.14 34.43,-14.22 34.88,-13.31 35.23,-11.81 35.58,-10.32 35.99,-9.07 36.40,-7.82 36.90,-7.09 37.39,-6.37 38.01,-6.48 38.63,-6.59 39.22,-7.58 39.82,-8.58 40.63,-10.04 41.45,-11.50 42.26,-13.03 43.06,-14.56 43.53,-15.54 43.99,-16.51 44.24,-17.09 44.49,-17.67 44.78,-18.23 45.07,-18.78 45.33,-19.34 45.59,-19.90 45.63,-19.97 45.67,-20.04 45.74,-20.15 45.81,-20.26 45.90,-20.35 45.99,-20.44 46.11,-20.50 46.22,-20.57 46.34,-20.61 46.47,-20.64 46.60,-20.65 46.73,-20.65 46.85,-20.63 46.98,-20.60 47.10,-20.55 47.22,-20.49 47.32,-20.41 47.42,-20.33 47.50,-20.23 47.58,-20.12 47.63,-20.00 47.68,-19.88 47.70,-19.75 47.72,-19.63 47.71,-19.50 47.70,-19.37 47.66,-19.24 47.62,-19.12 48.03,-18.12 48.43,-17.11 48.60,-15.24 48.78,-13.37 48.87,-11.20 48.96,-9.02 49.02,-7.34 49.09,-5.66 49.26,-4.85 49.44,-4.04 49.42,-3.89 49.41,-3.74 49.36,-3.60 49.31,-3.46 49.23,-3.34 49.15,-3.22 49.04,-3.12 48.94,-3.02 48.81,-2.94 48.68,-2.87 48.54,-2.83 48.39,-2.79 48.25,-2.79 48.10,-2.78 47.95,-2.82 47.81,-2.85 47.68,-2.91 47.55,-2.98 47.43,-3.07 47.32,-3.17 47.23,-3.29 47.15,-3.40 47.09,-3.54 47.03,-3.68 47.01,-3.82 46.99,-3.97 47.63,-4.52 48.26,-5.08 48.57,-6.12 48.88,-7.15 49.50,-9.13 50.12,-11.10 50.98,-13.18 51.83,-15.26 53.03,-16.56 54.23,-17.86 55.30,-17.63 56.37,-17.40 57.12,-15.99 57.88,-14.59 58.34,-13.18 58.80,-11.77 59.18,-10.98 59.56,-10.19 60.38,-10.24 61.19,-10.29 62.36,-11.07 63.52,-11.86 64.86,-12.82 66.21,-13.79 67.38,-14.26 68.55,-14.74 69.66,-14.61 70.77,-14.48 71.80,-14.09 72.83,-13.70 73.83,-13.72 74.82,-13.74 76.22,-14.61 77.62,-15.48 79.26,-17.28 80.90,-19.09 82.24,-21.00 83.59,-22.91 84.29,-24.09 85.00,-25.28 85.01,-25.28 85.02,-25.28 85.09,-25.37 85.16,-25.47 85.25,-25.54 85.34,-25.62 85.45,-25.67 85.55,-25.72 85.67,-25.74 85.78,-25.77 85.90,-25.76 86.02,-25.76 86.13,-25.73 86.25,-25.70 86.35,-25.64 86.45,-25.58 86.54,-25.50 86.62,-25.42 86.68,-25.32 86.75,-25.22 86.79,-25.11 86.82,-25.00 86.83,-24.88 86.84,-24.76 86.83,-24.65 86.81,-24.53 86.76,-24.42 86.72,-24.31 86.60,-23.27 86.49,-22.22 86.50,-20.66 86.52,-19.10 87.06,-18.02 87.60,-16.94 88.67,-16.19 89.74,-15.45 90.65,-14.95 91.56,-14.45 92.94,-13.85 94.32,-13.24 94.42,-13.20 94.51,-13.15 94.59,-13.07 94.66,-13.00 94.71,-12.90 94.76,-12.81 94.77,-12.70 94.79,-12.60 94.77,-12.49 94.75,-12.39 94.69,-12.30 94.64,-12.20 94.56,-12.13 94.48,-12.06 94.38,-12.02 94.29,-11.98 94.18,-11.97 94.08,-11.96 93.97,-11.99 93.87,-12.01 93.78,-12.07 93.69,-12.13 93.62,-12.21 93.56,-12.29 93.52,-12.39 93.49,-12.49 93.48,-12.60 93.48,-12.71 93.51,-12.81 93.54,-12.91 93.60,-13.00 93.67,-13.08 93.75,-13.14 93.84,-13.20 93.94,-13.24 94.04,-13.27 94.15,-13.26 94.26,-13.26 94.36,-13.22 94.46,-13.19 94.54,-13.12 94.62,-13.05 94.68,-12.96 94.73,-12.87 94.76,-12.77 94.78,-12.67 94.78,-12.56 94.77,-12.46 94.72,-12.36 94.68,-12.26 94.61,-12.18 94.54,-12.10 94.45,-12.05 94.35,-12.00 94.25,-11.98 94.15,-11.96 94.04,-11.97 93.94,-11.99 93.94,-11.99 93.94,-11.99 92.33,-12.38 90.73,-12.78 89.62,-13.29 88.51,-13.79 87.13,-14.87 85.74,-15.95 85.09,-17.49 84.43,-19.02 84.46,-20.78 84.48,-22.54 84.75,-23.91 85.02,-25.28 85.09,-25.37 85.16,-25.47 85.25,-25.54 85.34,-25.62 85.45,-25.67 85.55,-25.72 85.67,-25.74 85.78,-25.77 85.90,-25.76 86.02,-25.76 86.13,-25.73 86.25,-25.70 86.35,-25.64 86.45,-25.58 86.54,-25.50 86.62,-25.42 86.68,-25.32 86.75,-25.22 86.79,-25.11 86.82,-25.00 86.83,-24.88 86.84,-24.76 86.83,-24.65 86.81,-24.53 86.76,-24.42 86.72,-24.31 86.57,-24.25 86.42,-24.18 85.79,-23.01 85.15,-21.84 83.78,-19.78 82.40,-17.72 80.55,-15.69 78.70,-13.65 76.83,-12.64 74.95,-11.64 73.53,-11.67 72.11,-11.71 71.24,-12.05 70.38,-12.40 69.77,-12.59 69.16,-12.78 68.30,-12.42 67.44,-12.05 66.04,-11.04 64.64,-10.02 62.96,-9.07 61.28,-8.12 59.82,-8.33 58.36,-8.53 57.50,-9.80 56.65,-11.07 56.25,-12.39 55.85,-13.70 55.18,-14.86 54.51,-16.03 54.18,-15.23 53.86,-14.42 53.06,-12.44 52.26,-10.45 51.64,-8.35 51.02,-6.24 50.23,-5.14 49.44,-4.04 49.42,-3.89 49.41,-3.74 49.36,-3.60 49.31,-3.46 49.23,-3.34 49.15,-3.22 49.04,-3.12 48.94,-3.02 48.81,-2.94 48.68,-2.87 48.54,-2.83 48.39,-2.79 48.25,-2.79 48.10,-2.78 47.95,-2.82 47.81,-2.85 47.68,-2.91 47.55,-2.98 47.43,-3.07 47.32,-3.17 47.23,-3.28 47.15,-3.40 47.09,-3.54 47.03,-3.68 47.01,-3.82 46.99,-3.97 46.82,-4.78 46.66,-5.58 46.63,-7.27 46.60,-8.95 46.56,-11.06 46.51,-13.18 46.37,-14.94 46.23,-16.70 46.09,-17.61 45.96,-18.51 45.81,-19.27 45.67,-20.04 45.74,-20.15 45.81,-20.26 45.90,-20.35 45.99,-20.44 46.11,-20.50 46.22,-20.57 46.34,-20.61 46.47,-20.64 46.60,-20.65 46.73,-20.65 46.85,-20.63 46.98,-20.60 47.10,-20.55 47.22,-20.49 47.32,-20.41 47.42,-20.33 47.50,-20.23 47.58,-20.12 47.63,-20.00 47.68,-19.88 47.70,-19.75 47.72,-19.63 47.71,-19.50 47.70,-19.37 47.66,-19.24 47.62,-19.12 47.48,-18.86 47.35,-18.59 46.93,-17.77 46.51,-16.95 46.22,-16.27 45.93,-15.59 45.45,-14.58 44.96,-13.57 44.16,-12.01 43.35,-10.45 42.48,-8.90 41.62,-7.35 40.64,-6.03 39.65,-4.71 38.66,-4.40 37.66,-4.09 36.68,-4.59 35.69,-5.09 35.03,-6.11 34.37,-7.13 33.93,-8.48 33.48,-9.82 33.14,-11.26 32.80,-12.70 32.59,-13.50 32.38,-14.31 32.12,-15.01 31.85,-15.72 31.90,-15.84 31.95,-15.96 32.03,-16.07 32.11,-16.18 32.21,-16.26 32.31,-16.35 32.43,-16.41 32.55,-16.47 32.68,-16.49 32.81,-16.52 32.94,-16.52 33.07,-16.52 33.20,-16.48 33.33,-16.45 33.44,-16.38 33.56,-16.32 33.65,-16.23 33.75,-16.14 33.82,-16.03 33.90,-15.92 33.94,-15.79 33.99,-15.67 34.00,-15.54 34.01,-15.40 33.99,-15.27 33.97,-15.14 33.86,-14.88 33.74,-14.61 33.53,-13.83 33.31,-13.06 32.76,-11.78 32.21,-10.50 31.22,-9.08 30.23,-7.66 28.94,-6.57 27.64,-5.48 26.18,-5.10 24.72,-4.72 23.46,-5.25 22.19,-5.78 21.37,-7.11 20.54,-8.45 20.27,-10.21 20.00,-11.97 20.17,-13.60 20.34,-15.23 20.59,-15.75 20.85,-16.27 20.89,-16.39 20.93,-16.52 21.00,-16.63 21.07,-16.74 21.17,-16.83 21.26,-16.93 21.38,-16.99 21.49,-17.06 21.62,-17.10 21.75,-17.13 21.88,-17.14 22.01,-17.14 22.14,-17.12 22.27,-17.09 22.39,-17.04 22.51,-16.98 22.61,-16.90 22.72,-16.81 22.80,-16.71 22.88,-16.60 22.93,-16.48 22.98,-16.36 23.00,-16.23 23.03,-16.10 23.01,-15.97 23.00,-15.83 23.15,-15.57 23.30,-15.31 23.04,-13.95 22.77,-12.58 21.90,-10.70 21.03,-8.81 19.65,-6.89 18.27,-4.98 16.59,-3.85 14.90,-2.71 13.57,-2.85 12.23,-2.99 11.47,-3.59 10.72,-4.20 9.95,-4.77 9.19,-5.35 8.46,-4.99 7.72,-4.63 6.85,-3.94 5.97,-3.25 4.89,-2.31 3.80,-1.37 2.85,-0.69 1.89,-0.02 1.09,0.28 0.28,0.58 0.21,0.61 0.13,0.64 0.06,0.64 -0.01,0.65 -0.09,0.64 -0.17,0.63 -0.24,0.60 -0.32,0.57 -0.38,0.52 -0.44,0.47 -0.49,0.41 -0.55,0.35 -0.58,0.28 -0.62,0.21 -0.63,0.13 -0.65,0.06 -0.65,-0.01 -0.64,-0.09 -0.62,-0.17 -0.60,-0.24 -0.56,-0.31 -0.52,-0.38 -0.47,-0.44 -0.42,-0.50 -0.35,-0.54 -0.28,-0.58 -0.28,-0.58 L -0.28,-0.58 Z"></path></g><g transform="translate(182.50524590137258 35.43757866849472) rotate(0 0.3583036851086945 0.6539205062002225)" stroke="none"><path fill="#1e1e1e" d="M 0.62,-0.21 Q 0.62,-0.21 0.84,0.43 1.07,1.09 1.09,1.19 1.11,1.30 1.09,1.40 1.08,1.51 1.03,1.60 0.98,1.69 0.90,1.77 0.83,1.84 0.73,1.89 0.63,1.93 0.53,1.95 0.42,1.96 0.32,1.94 0.21,1.92 0.12,1.86 0.03,1.81 -0.03,1.73 -0.10,1.65 -0.14,1.55 -0.18,1.45 -0.19,1.34 -0.19,1.24 -0.17,1.14 -0.14,1.03 -0.08,0.94 -0.02,0.86 0.05,0.79 0.14,0.73 0.24,0.69 0.34,0.66 0.44,0.65 0.55,0.65 0.65,0.69 0.75,0.72 0.84,0.78 0.92,0.85 0.98,0.93 1.04,1.02 1.07,1.12 1.10,1.23 1.10,1.33 1.09,1.44 1.06,1.54 1.02,1.64 0.95,1.72 0.88,1.80 0.79,1.85 0.70,1.91 0.60,1.93 0.49,1.96 0.39,1.95 0.28,1.94 0.18,1.89 0.09,1.85 0.01,1.78 -0.06,1.71 -0.11,1.61 -0.16,1.52 -0.16,1.52 -0.16,1.52 -0.39,0.87 -0.62,0.21 -0.63,0.13 -0.65,0.06 -0.65,-0.01 -0.64,-0.09 -0.62,-0.17 -0.60,-0.24 -0.56,-0.31 -0.53,-0.38 -0.47,-0.44 -0.42,-0.50 -0.35,-0.54 -0.28,-0.58 -0.21,-0.61 -0.13,-0.64 -0.06,-0.64 0.01,-0.65 0.09,-0.64 0.17,-0.63 0.24,-0.60 0.32,-0.57 0.38,-0.52 0.44,-0.47 0.49,-0.41 0.55,-0.35 0.58,-0.28 0.62,-0.21 0.62,-0.21 L 0.62,-0.21 Z"></path></g><g transform="translate(206.15304033211117 26.021099964017765) rotate(0 2.5732566206253864 3.825442644381752)" stroke="none"><path fill="#1e1e1e" d="M 0.55,0.42 Q 0.55,0.42 -0.08,1.48 -0.71,2.55 -1.61,4.45 -2.51,6.35 -2.93,8.18 -3.34,10.02 -3.03,10.89 -2.72,11.77 -1.47,11.92 -0.23,12.08 1.39,11.26 3.02,10.43 4.47,8.82 5.91,7.21 6.80,4.69 7.69,2.17 7.75,0.22 7.81,-1.71 6.90,-2.75 5.99,-3.79 4.53,-3.56 3.07,-3.32 1.61,-1.73 0.16,-0.14 -0.81,2.16 -1.79,4.46 -2.00,6.29 -2.21,8.12 -2.14,9.67 -2.08,11.21 -2.09,11.32 -2.10,11.42 -2.15,11.52 -2.19,11.62 -2.27,11.69 -2.34,11.77 -2.43,11.82 -2.53,11.87 -2.63,11.88 -2.74,11.90 -2.84,11.88 -2.95,11.86 -3.04,11.81 -3.13,11.76 -3.21,11.68 -3.28,11.61 -3.32,11.51 -3.37,11.41 -3.38,11.31 -3.39,11.20 -3.36,11.10 -3.34,10.99 -3.28,10.90 -3.23,10.81 -3.15,10.74 -3.06,10.68 -2.96,10.64 -2.87,10.60 -2.76,10.60 -2.65,10.59 -2.55,10.62 -2.45,10.65 -2.36,10.71 -2.27,10.77 -2.21,10.86 -2.15,10.94 -2.11,11.04 -2.08,11.14 -2.08,11.25 -2.08,11.36 -2.12,11.46 -2.15,11.56 -2.22,11.64 -2.28,11.72 -2.37,11.78 -2.46,11.84 -2.56,11.87 -2.67,11.90 -2.77,11.89 -2.88,11.88 -2.98,11.84 -3.08,11.80 -3.16,11.73 -3.24,11.66 -3.29,11.57 -3.34,11.48 -3.37,11.37 -3.39,11.27 -3.39,11.27 -3.39,11.27 -3.46,9.65 -3.52,8.03 -3.48,5.93 -3.44,3.83 -2.42,1.13 -1.39,-1.55 0.55,-3.50 2.50,-5.45 4.72,-5.59 6.95,-5.72 8.53,-3.91 10.12,-2.10 10.07,0.44 10.02,2.99 8.88,5.91 7.75,8.83 5.91,10.73 4.08,12.64 1.80,13.54 -0.47,14.44 -2.35,13.87 -4.22,13.30 -4.91,11.50 -5.60,9.70 -5.03,7.54 -4.45,5.38 -3.36,3.37 -2.27,1.36 -1.41,0.46 -0.55,-0.42 -0.49,-0.48 -0.43,-0.54 -0.36,-0.58 -0.29,-0.62 -0.21,-0.65 -0.13,-0.68 -0.04,-0.68 0.03,-0.69 0.11,-0.67 0.19,-0.66 0.27,-0.63 0.35,-0.59 0.41,-0.54 0.48,-0.49 0.53,-0.43 0.58,-0.36 0.62,-0.28 0.66,-0.21 0.67,-0.13 0.69,-0.04 0.68,0.03 0.68,0.11 0.65,0.19 0.63,0.27 0.59,0.35 0.55,0.42 0.55,0.42 L 0.55,0.42 Z"></path></g><g transform="translate(213.9053426788036 29.748447581083894) rotate(0 4.592773178059645 5.6237441588644685)" stroke="none"><path fill="#1e1e1e" d="M 0.66,0.11 Q 0.66,0.11 0.50,1.73 0.35,3.35 -0.21,6.58 -0.78,9.81 -1.28,12.47 -1.78,15.12 -2.03,16.60 -2.28,18.08 -2.01,18.49 -1.74,18.90 -1.77,19.02 -1.80,19.13 -1.85,19.24 -1.91,19.34 -1.99,19.43 -2.06,19.52 -2.16,19.58 -2.26,19.65 -2.37,19.69 -2.48,19.74 -2.59,19.75 -2.71,19.76 -2.83,19.75 -2.94,19.74 -3.05,19.69 -3.16,19.65 -3.26,19.59 -3.36,19.52 -3.44,19.43 -3.51,19.34 -3.57,19.24 -3.62,19.14 -3.65,19.02 -3.68,18.91 -3.68,18.79 -3.68,18.67 -2.94,17.54 -2.19,16.40 -1.30,14.92 -0.40,13.44 0.38,12.42 1.18,11.39 1.90,11.06 2.63,10.74 3.34,10.81 4.05,10.89 4.80,10.44 5.55,10.00 6.78,8.40 8.01,6.79 9.10,4.30 10.18,1.82 10.50,-0.64 10.81,-3.10 10.24,-4.68 9.66,-6.26 8.75,-6.80 7.84,-7.35 6.89,-7.07 5.93,-6.78 4.94,-5.81 3.94,-4.84 2.74,-2.15 1.53,0.53 1.48,0.62 1.43,0.72 1.36,0.79 1.28,0.86 1.18,0.91 1.09,0.95 0.98,0.97 0.88,0.98 0.77,0.96 0.67,0.93 0.58,0.88 0.49,0.83 0.42,0.75 0.35,0.67 0.31,0.57 0.27,0.47 0.26,0.36 0.25,0.26 0.28,0.15 0.31,0.05 0.37,-0.03 0.43,-0.12 0.51,-0.18 0.59,-0.25 0.70,-0.28 0.80,-0.32 0.90,-0.32 1.01,-0.32 1.11,-0.28 1.21,-0.25 1.30,-0.19 1.38,-0.12 1.44,-0.04 1.50,0.04 1.53,0.14 1.56,0.25 1.55,0.35 1.55,0.46 1.51,0.56 1.47,0.66 1.40,0.74 1.34,0.82 1.25,0.87 1.16,0.93 1.05,0.95 0.95,0.98 0.84,0.97 0.74,0.96 0.64,0.91 0.54,0.87 0.47,0.80 0.39,0.72 0.34,0.63 0.29,0.54 0.27,0.43 0.25,0.33 0.27,0.22 0.28,0.12 0.28,0.12 0.28,0.12 1.39,-3.07 2.49,-6.27 3.91,-7.61 5.34,-8.94 6.99,-9.13 8.64,-9.31 10.07,-8.22 11.50,-7.12 12.13,-5.02 12.75,-2.92 12.35,-0.17 11.95,2.58 10.73,5.28 9.52,7.98 7.98,9.83 6.44,11.68 5.18,12.19 3.92,12.71 3.15,12.61 2.38,12.50 1.71,13.40 1.04,14.30 0.16,15.84 -0.71,17.39 -1.23,18.15 -1.74,18.90 -1.77,19.02 -1.80,19.13 -1.85,19.24 -1.91,19.34 -1.99,19.43 -2.06,19.52 -2.16,19.58 -2.26,19.65 -2.37,19.69 -2.48,19.74 -2.59,19.75 -2.71,19.76 -2.83,19.75 -2.94,19.74 -3.05,19.69 -3.16,19.65 -3.26,19.59 -3.36,19.52 -3.44,19.43 -3.51,19.34 -3.57,19.24 -3.62,19.14 -3.65,19.02 -3.68,18.91 -3.68,18.79 -3.68,18.67 -3.91,18.59 -4.15,18.51 -3.99,16.61 -3.84,14.71 -3.30,12.08 -2.76,9.44 -2.12,6.23 -1.48,3.03 -1.07,1.45 -0.66,-0.11 -0.63,-0.19 -0.61,-0.27 -0.57,-0.34 -0.53,-0.41 -0.47,-0.46 -0.41,-0.52 -0.34,-0.56 -0.28,-0.61 -0.20,-0.63 -0.12,-0.65 -0.04,-0.66 0.03,-0.67 0.11,-0.65 0.19,-0.64 0.26,-0.60 0.34,-0.57 0.40,-0.52 0.47,-0.47 0.52,-0.41 0.57,-0.35 0.60,-0.27 0.63,-0.20 0.65,-0.12 0.67,-0.04 0.66,0.03 0.66,0.11 0.66,0.11 L 0.66,0.11 Z"></path></g><g transform="translate(235.92455184625732 31.317880211158183) rotate(0 5.635071258840981 -0.32697854622023215)" stroke="none"><path fill="#1e1e1e" d="M -0.07,-0.65 Q -0.07,-0.65 1.57,-1.08 3.23,-1.51 4.80,-1.63 6.37,-1.74 8.94,-1.11 11.52,-0.47 11.61,-0.41 11.70,-0.36 11.77,-0.28 11.83,-0.19 11.87,-0.09 11.91,0.00 11.91,0.10 11.92,0.21 11.89,0.31 11.86,0.41 11.80,0.50 11.73,0.59 11.65,0.65 11.56,0.71 11.46,0.74 11.36,0.78 11.25,0.77 11.15,0.77 11.05,0.74 10.95,0.70 10.86,0.63 10.78,0.57 10.72,0.48 10.66,0.39 10.64,0.29 10.61,0.19 10.62,0.08 10.63,-0.02 10.67,-0.11 10.71,-0.21 10.78,-0.29 10.85,-0.37 10.94,-0.43 11.03,-0.48 11.14,-0.50 11.24,-0.52 11.35,-0.51 11.45,-0.49 11.55,-0.45 11.64,-0.40 11.72,-0.33 11.79,-0.25 11.84,-0.16 11.89,-0.06 11.91,0.03 11.92,0.14 11.90,0.24 11.88,0.35 11.83,0.44 11.78,0.53 11.70,0.60 11.62,0.68 11.53,0.72 11.43,0.76 11.32,0.77 11.22,0.78 11.11,0.76 11.01,0.73 11.01,0.73 11.01,0.73 8.77,0.61 6.52,0.49 5.01,0.59 3.50,0.69 1.79,0.67 0.07,0.65 0.00,0.65 -0.07,0.65 -0.15,0.63 -0.23,0.61 -0.30,0.57 -0.37,0.54 -0.43,0.48 -0.49,0.43 -0.53,0.37 -0.58,0.30 -0.60,0.23 -0.63,0.15 -0.64,0.07 -0.65,0.00 -0.64,-0.07 -0.63,-0.15 -0.60,-0.23 -0.58,-0.30 -0.53,-0.36 -0.49,-0.43 -0.43,-0.48 -0.37,-0.53 -0.30,-0.57 -0.23,-0.61 -0.15,-0.63 -0.07,-0.65 -0.07,-0.65 L -0.07,-0.65 Z"></path></g><g transform="translate(258.00885525233554 33.148860555418025) rotate(0 18.012737806393602 -7.095067127127038)" stroke="none"><path fill="#1e1e1e" d="M 0.29,-0.58 Q 0.29,-0.58 0.46,-0.34 0.64,-0.10 1.38,-1.14 2.12,-2.18 3.20,-4.13 4.29,-6.07 5.35,-8.26 6.42,-10.45 7.05,-11.93 7.67,-13.42 7.91,-14.02 8.16,-14.63 8.22,-14.74 8.28,-14.85 8.37,-14.94 8.46,-15.03 8.57,-15.10 8.68,-15.17 8.80,-15.21 8.92,-15.25 9.05,-15.26 9.17,-15.27 9.30,-15.25 9.43,-15.23 9.54,-15.18 9.66,-15.13 9.76,-15.05 9.86,-14.97 9.94,-14.87 10.02,-14.77 10.08,-14.66 10.13,-14.54 10.16,-14.42 10.18,-14.29 10.18,-14.17 10.17,-14.04 10.13,-13.92 10.10,-13.79 9.86,-11.47 9.62,-9.15 9.46,-7.17 9.30,-5.19 9.42,-4.12 9.55,-3.05 10.42,-2.94 11.28,-2.82 12.28,-3.49 13.27,-4.17 14.53,-5.33 15.80,-6.50 17.11,-7.23 18.42,-7.96 19.01,-7.63 19.61,-7.30 20.17,-5.85 20.74,-4.40 21.56,-3.20 22.39,-2.01 23.56,-1.47 24.73,-0.93 26.11,-1.32 27.49,-1.70 28.92,-2.92 30.35,-4.15 31.59,-5.68 32.82,-7.22 33.46,-7.98 34.09,-8.74 34.03,-9.13 33.98,-9.52 34.06,-9.62 34.15,-9.72 34.26,-9.79 34.37,-9.87 34.49,-9.91 34.62,-9.96 34.75,-9.97 34.88,-9.99 35.01,-9.97 35.14,-9.96 35.27,-9.91 35.39,-9.86 35.50,-9.79 35.61,-9.71 35.70,-9.61 35.78,-9.51 35.84,-9.39 35.91,-9.28 35.94,-9.15 35.97,-9.02 35.97,-8.89 35.97,-8.75 35.93,-8.63 35.90,-8.50 35.84,-8.38 35.78,-8.26 35.06,-7.76 34.34,-7.27 33.60,-6.96 32.85,-6.65 32.02,-6.61 31.20,-6.57 30.53,-6.68 29.87,-6.79 29.32,-6.64 28.76,-6.48 28.18,-6.09 27.60,-5.69 26.70,-4.61 25.80,-3.53 25.72,-3.45 25.65,-3.38 25.55,-3.33 25.45,-3.29 25.35,-3.28 25.24,-3.26 25.14,-3.28 25.03,-3.31 24.94,-3.36 24.85,-3.41 24.78,-3.49 24.71,-3.57 24.67,-3.67 24.63,-3.77 24.62,-3.88 24.62,-3.98 24.65,-4.09 24.67,-4.19 24.73,-4.28 24.79,-4.37 24.87,-4.43 24.96,-4.50 25.06,-4.53 25.16,-4.57 25.26,-4.57 25.37,-4.57 25.47,-4.53 25.57,-4.50 25.66,-4.44 25.74,-4.37 25.80,-4.29 25.86,-4.20 25.89,-4.10 25.92,-4.00 25.92,-3.89 25.91,-3.78 25.88,-3.68 25.84,-3.59 25.77,-3.50 25.70,-3.42 25.61,-3.37 25.52,-3.31 25.42,-3.29 25.31,-3.26 25.21,-3.27 25.10,-3.28 25.01,-3.33 24.91,-3.37 24.83,-3.44 24.75,-3.52 24.70,-3.61 24.65,-3.70 24.63,-3.81 24.61,-3.91 24.63,-4.02 24.65,-4.12 24.70,-4.22 24.74,-4.31 24.74,-4.31 24.74,-4.31 25.65,-5.66 26.56,-7.01 27.37,-7.69 28.18,-8.38 29.14,-8.64 30.10,-8.90 31.07,-8.84 32.04,-8.78 33.01,-9.15 33.98,-9.52 34.06,-9.62 34.15,-9.72 34.26,-9.79 34.37,-9.87 34.49,-9.91 34.62,-9.96 34.75,-9.97 34.88,-9.99 35.01,-9.97 35.14,-9.96 35.27,-9.91 35.39,-9.86 35.50,-9.79 35.61,-9.71 35.70,-9.61 35.78,-9.51 35.84,-9.39 35.91,-9.28 35.94,-9.15 35.97,-9.02 35.97,-8.89 35.97,-8.75 35.93,-8.63 35.90,-8.50 35.84,-8.38 35.78,-8.26 35.85,-8.31 35.92,-8.35 35.18,-7.13 34.43,-5.92 33.05,-4.23 31.67,-2.54 29.84,-1.12 28.02,0.28 26.06,0.62 24.10,0.95 22.44,0.09 20.78,-0.76 19.79,-2.25 18.81,-3.73 18.33,-5.02 17.85,-6.31 17.53,-5.64 17.21,-4.97 15.77,-3.64 14.34,-2.31 12.77,-1.53 11.20,-0.75 9.74,-1.20 8.28,-1.65 7.70,-3.49 7.11,-5.34 7.30,-7.40 7.49,-9.45 7.77,-11.34 8.05,-13.23 8.10,-13.93 8.16,-14.63 8.22,-14.74 8.28,-14.85 8.37,-14.94 8.46,-15.03 8.57,-15.10 8.68,-15.17 8.80,-15.21 8.92,-15.25 9.05,-15.26 9.17,-15.27 9.30,-15.25 9.43,-15.23 9.54,-15.18 9.66,-15.13 9.76,-15.05 9.86,-14.97 9.94,-14.87 10.02,-14.77 10.08,-14.66 10.13,-14.54 10.16,-14.42 10.18,-14.29 10.18,-14.17 10.17,-14.04 10.13,-13.92 10.10,-13.79 9.83,-13.20 9.55,-12.60 8.89,-11.08 8.22,-9.56 7.11,-7.33 6.01,-5.10 4.82,-3.02 3.62,-0.94 2.61,0.14 1.60,1.22 0.65,0.90 -0.29,0.58 -0.36,0.54 -0.42,0.49 -0.48,0.44 -0.53,0.38 -0.57,0.31 -0.60,0.24 -0.62,0.16 -0.65,0.09 -0.65,0.01 -0.65,-0.06 -0.63,-0.14 -0.61,-0.22 -0.58,-0.29 -0.54,-0.36 -0.49,-0.42 -0.44,-0.48 -0.37,-0.52 -0.31,-0.57 -0.24,-0.60 -0.16,-0.63 -0.09,-0.64 -0.01,-0.65 0.06,-0.64 0.14,-0.64 0.22,-0.61 0.29,-0.58 0.29,-0.58 L 0.29,-0.58 Z"></path></g><g transform="translate(295.2069344991219 26.34804924124586) rotate(0 2.9641147422943845 1.3078483296484933)" stroke="none"><path fill="#1e1e1e" d="M 0.42,-0.49 Q 0.42,-0.49 1.17,-0.12 1.91,0.25 2.47,0.68 3.03,1.11 4.37,0.86 5.72,0.61 5.82,0.60 5.92,0.58 6.03,0.60 6.13,0.62 6.23,0.67 6.32,0.72 6.39,0.79 6.47,0.87 6.51,0.97 6.56,1.06 6.57,1.17 6.58,1.27 6.56,1.38 6.53,1.48 6.48,1.57 6.42,1.66 6.34,1.73 6.26,1.80 6.16,1.84 6.06,1.88 5.96,1.88 5.85,1.89 5.75,1.86 5.65,1.83 5.56,1.77 5.47,1.71 5.41,1.63 5.34,1.54 5.31,1.44 5.27,1.34 5.28,1.24 5.28,1.13 5.31,1.03 5.34,0.93 5.41,0.84 5.47,0.76 5.56,0.70 5.65,0.64 5.75,0.61 5.85,0.58 5.96,0.59 6.07,0.60 6.16,0.64 6.26,0.68 6.34,0.74 6.42,0.81 6.48,0.90 6.53,1.00 6.56,1.10 6.58,1.20 6.57,1.31 6.56,1.41 6.51,1.51 6.47,1.61 6.39,1.68 6.32,1.76 6.23,1.81 6.13,1.86 6.13,1.86 6.13,1.86 4.20,2.32 2.28,2.78 1.41,2.32 0.55,1.85 0.06,1.17 -0.42,0.49 -0.47,0.44 -0.53,0.38 -0.57,0.31 -0.60,0.24 -0.62,0.16 -0.65,0.09 -0.65,0.01 -0.65,-0.06 -0.63,-0.14 -0.61,-0.22 -0.58,-0.29 -0.54,-0.36 -0.49,-0.42 -0.44,-0.48 -0.38,-0.52 -0.31,-0.57 -0.24,-0.60 -0.16,-0.63 -0.09,-0.64 -0.01,-0.65 0.06,-0.64 0.14,-0.64 0.21,-0.61 0.29,-0.58 0.35,-0.54 0.42,-0.49 0.42,-0.49 L 0.42,-0.49 Z"></path></g><g transform="translate(328.1053987935964 13.792749180108558) rotate(0 -2.280098394877598 11.934080336458265)" stroke="none"><path fill="#1e1e1e" d="M -0.63,0.18 Q -0.63,0.18 -1.16,-0.69 -1.70,-1.58 -1.99,-2.02 -2.28,-2.46 -2.30,-2.62 -2.33,-2.78 -2.32,-2.94 -2.31,-3.11 -2.25,-3.26 -2.20,-3.41 -2.12,-3.55 -2.03,-3.69 -1.91,-3.80 -1.80,-3.92 -1.66,-4.00 -1.52,-4.08 -1.36,-4.13 -1.20,-4.17 -1.04,-4.18 -0.88,-4.18 -0.72,-4.15 -0.56,-4.12 -0.41,-4.05 -0.27,-3.98 -0.14,-3.88 -0.01,-3.78 0.07,-3.65 0.17,-3.52 0.24,-3.37 0.30,-3.22 0.28,-2.24 0.26,-1.27 0.28,1.39 0.30,4.06 0.20,8.08 0.10,12.11 0.00,15.78 -0.09,19.46 -0.07,21.71 -0.05,23.97 -0.27,24.95 -0.48,25.93 -0.50,26.07 -0.51,26.22 -0.56,26.36 -0.61,26.50 -0.69,26.62 -0.77,26.75 -0.88,26.85 -0.99,26.95 -1.12,27.02 -1.25,27.09 -1.39,27.13 -1.54,27.17 -1.69,27.17 -1.83,27.18 -1.98,27.14 -2.12,27.11 -2.26,27.05 -2.39,26.98 -2.50,26.88 -2.61,26.79 -2.70,26.67 -2.79,26.55 -2.84,26.41 -2.90,26.27 -2.92,26.13 -2.94,25.98 -3.18,25.47 -3.42,24.96 -4.28,23.49 -5.13,22.02 -5.17,21.92 -5.20,21.82 -5.20,21.71 -5.20,21.60 -5.17,21.50 -5.14,21.40 -5.07,21.32 -5.01,21.23 -4.92,21.17 -4.83,21.11 -4.73,21.08 -4.63,21.05 -4.52,21.06 -4.42,21.06 -4.32,21.10 -4.22,21.14 -4.14,21.21 -4.06,21.28 -4.00,21.37 -3.95,21.46 -3.92,21.56 -3.90,21.67 -3.91,21.77 -3.92,21.88 -3.97,21.97 -4.01,22.07 -4.08,22.15 -4.15,22.23 -4.25,22.28 -4.34,22.33 -4.45,22.34 -4.55,22.36 -4.66,22.35 -4.76,22.33 -4.85,22.28 -4.95,22.23 -5.02,22.15 -5.10,22.08 -5.14,21.98 -5.19,21.89 -5.20,21.78 -5.21,21.67 -5.19,21.57 -5.17,21.47 -5.11,21.37 -5.06,21.28 -4.98,21.21 -4.90,21.14 -4.80,21.10 -4.70,21.06 -4.59,21.06 -4.49,21.05 -4.39,21.08 -4.28,21.11 -4.20,21.17 -4.11,21.23 -4.04,21.31 -3.98,21.39 -3.98,21.39 -3.98,21.39 -3.18,22.74 -2.37,24.09 -1.43,25.01 -0.48,25.93 -0.50,26.07 -0.51,26.22 -0.56,26.36 -0.61,26.50 -0.69,26.62 -0.77,26.75 -0.88,26.85 -0.99,26.95 -1.12,27.02 -1.25,27.09 -1.39,27.13 -1.54,27.17 -1.69,27.17 -1.83,27.18 -1.98,27.14 -2.12,27.11 -2.26,27.05 -2.39,26.98 -2.50,26.88 -2.61,26.79 -2.70,26.67 -2.79,26.55 -2.84,26.41 -2.90,26.27 -2.92,26.13 -2.94,25.98 -3.01,25.01 -3.08,24.03 -3.16,21.70 -3.24,19.37 -3.13,15.69 -3.02,12.01 -2.88,8.03 -2.75,4.05 -2.51,0.79 -2.28,-2.46 -2.30,-2.62 -2.33,-2.78 -2.32,-2.94 -2.31,-3.11 -2.25,-3.26 -2.20,-3.41 -2.12,-3.55 -2.03,-3.69 -1.91,-3.80 -1.80,-3.92 -1.66,-4.00 -1.52,-4.08 -1.36,-4.13 -1.20,-4.17 -1.04,-4.18 -0.88,-4.18 -0.72,-4.15 -0.56,-4.12 -0.41,-4.05 -0.27,-3.98 -0.14,-3.88 -0.01,-3.78 0.07,-3.65 0.17,-3.52 0.24,-3.37 0.30,-3.22 0.44,-2.73 0.58,-2.25 0.60,-1.21 0.63,-0.18 0.64,-0.10 0.65,-0.02 0.64,0.05 0.64,0.12 0.61,0.20 0.59,0.27 0.55,0.34 0.50,0.41 0.45,0.46 0.39,0.52 0.32,0.56 0.25,0.60 0.18,0.62 0.10,0.64 0.02,0.65 -0.05,0.65 -0.12,0.63 -0.20,0.62 -0.27,0.58 -0.34,0.55 -0.41,0.50 -0.47,0.45 -0.51,0.39 -0.56,0.33 -0.59,0.25 -0.63,0.18 -0.63,0.18 L -0.63,0.18 Z"></path></g><g transform="translate(314.4899904699319 13.531172196930811) rotate(0 10.94443717262186 0.6866139704734167)" stroke="none"><path fill="#1e1e1e" d="M -0.06,-0.66 Q -0.06,-0.66 2.23,-1.09 4.53,-1.52 6.91,-1.58 9.29,-1.64 11.85,-1.43 14.40,-1.23 16.53,-0.48 18.67,0.25 20.39,0.93 22.12,1.61 22.21,1.66 22.30,1.71 22.37,1.79 22.44,1.87 22.48,1.97 22.52,2.07 22.53,2.18 22.54,2.28 22.51,2.39 22.48,2.49 22.42,2.58 22.37,2.67 22.28,2.73 22.20,2.80 22.10,2.83 22.00,2.87 21.89,2.87 21.78,2.87 21.68,2.83 21.58,2.80 21.50,2.74 21.41,2.67 21.35,2.59 21.29,2.50 21.26,2.40 21.23,2.30 21.24,2.19 21.24,2.08 21.28,1.98 21.32,1.89 21.39,1.80 21.45,1.72 21.54,1.67 21.63,1.61 21.74,1.59 21.84,1.56 21.95,1.57 22.05,1.58 22.15,1.63 22.25,1.67 22.32,1.74 22.40,1.82 22.45,1.91 22.50,2.00 22.52,2.11 22.54,2.21 22.52,2.32 22.51,2.42 22.46,2.52 22.41,2.61 22.33,2.68 22.26,2.76 22.16,2.80 22.07,2.85 21.96,2.86 21.85,2.87 21.75,2.85 21.65,2.83 21.65,2.83 21.65,2.83 19.98,2.19 18.30,1.56 16.28,1.15 14.26,0.73 11.80,0.60 9.33,0.47 7.04,0.50 4.75,0.54 2.41,0.60 0.06,0.66 -0.01,0.65 -0.09,0.65 -0.16,0.63 -0.24,0.61 -0.31,0.57 -0.38,0.54 -0.44,0.48 -0.50,0.43 -0.54,0.36 -0.59,0.29 -0.62,0.22 -0.64,0.14 -0.65,0.06 -0.66,-0.01 -0.65,-0.08 -0.64,-0.16 -0.61,-0.24 -0.58,-0.31 -0.53,-0.38 -0.48,-0.44 -0.42,-0.50 -0.36,-0.55 -0.29,-0.58 -0.22,-0.62 -0.14,-0.64 -0.06,-0.66 -0.06,-0.66 L -0.06,-0.66 Z"></path></g><g transform="translate(346.4112801912418 37.72631141606763) rotate(0 0.7166073702172753 0.06538692854638839)" stroke="none"><path fill="#1e1e1e" d="M 0.25,-0.60 Q 0.25,-0.60 0.45,-0.99 0.64,-1.38 0.71,-1.35 0.78,-1.31 0.84,-1.25 0.89,-1.20 0.94,-1.13 0.98,-1.06 1.00,-0.99 1.03,-0.91 1.04,-0.83 1.04,-0.76 1.03,-0.68 1.02,-0.60 0.99,-0.53 0.96,-0.45 0.91,-0.39 0.86,-0.33 0.80,-0.28 0.74,-0.23 0.67,-0.19 0.60,-0.16 0.52,-0.14 0.44,-0.13 0.36,-0.13 0.28,-0.13 0.21,-0.15 0.13,-0.17 -0.06,-0.45 -0.26,-0.72 -0.25,-0.83 -0.24,-0.93 -0.20,-1.03 -0.16,-1.13 -0.09,-1.21 -0.02,-1.29 0.06,-1.34 0.15,-1.39 0.26,-1.42 0.36,-1.44 0.47,-1.42 0.57,-1.41 0.67,-1.36 0.76,-1.32 0.84,-1.24 0.92,-1.17 0.96,-1.07 1.01,-0.98 1.03,-0.87 1.04,-0.77 1.02,-0.66 1.00,-0.56 0.95,-0.47 0.90,-0.37 0.82,-0.30 0.74,-0.23 0.65,-0.19 0.55,-0.14 0.44,-0.13 0.34,-0.12 0.23,-0.15 0.13,-0.17 0.04,-0.23 -0.04,-0.29 -0.11,-0.37 -0.17,-0.45 -0.21,-0.55 -0.25,-0.65 -0.25,-0.76 -0.26,-0.86 -0.23,-0.96 -0.19,-1.07 -0.13,-1.15 -0.07,-1.24 0.00,-1.30 0.09,-1.37 0.19,-1.40 0.29,-1.43 0.40,-1.43 0.50,-1.43 0.60,-1.39 0.70,-1.35 0.79,-1.29 0.87,-1.22 0.93,-1.13 0.99,-1.04 0.81,-1.21 0.64,-1.38 0.71,-1.35 0.78,-1.31 0.84,-1.25 0.89,-1.20 0.94,-1.13 0.98,-1.06 1.00,-0.99 1.03,-0.91 1.04,-0.83 1.04,-0.76 1.03,-0.68 1.02,-0.60 0.99,-0.53 0.96,-0.45 0.91,-0.39 0.86,-0.33 0.80,-0.28 0.74,-0.23 0.67,-0.19 0.60,-0.16 0.52,-0.14 0.44,-0.13 0.36,-0.13 0.28,-0.13 0.21,-0.15 0.13,-0.17 -0.06,0.21 -0.25,0.60 -0.32,0.56 -0.39,0.52 -0.45,0.47 -0.50,0.41 -0.54,0.34 -0.59,0.28 -0.61,0.20 -0.64,0.13 -0.64,0.05 -0.65,-0.02 -0.64,-0.10 -0.63,-0.18 -0.60,-0.25 -0.56,-0.32 -0.52,-0.39 -0.47,-0.45 -0.41,-0.50 -0.35,-0.55 -0.28,-0.58 -0.20,-0.62 -0.13,-0.63 -0.05,-0.65 0.02,-0.65 0.10,-0.64 0.17,-0.62 0.25,-0.60 0.25,-0.60 L 0.25,-0.60 Z"></path></g><g transform="translate(368.4304893586955 15.88529187305005) rotate(0 5.016163784544688 14.28821464707363)" stroke="none"><path fill="#1e1e1e" d="M -0.65,-0.01 Q -0.65,-0.01 -0.87,-1.71 -1.08,-3.40 -1.25,-4.11 -1.41,-4.81 -1.38,-4.96 -1.36,-5.12 -1.30,-5.26 -1.24,-5.41 -1.15,-5.53 -1.06,-5.66 -0.94,-5.76 -0.82,-5.86 -0.68,-5.93 -0.54,-6.00 -0.39,-6.03 -0.24,-6.07 -0.08,-6.06 0.06,-6.06 0.21,-6.02 0.36,-5.98 0.50,-5.90 0.63,-5.83 0.75,-5.72 0.86,-5.62 0.95,-5.49 1.04,-5.36 1.09,-5.21 1.14,-5.06 1.15,-4.91 1.17,-4.75 0.93,-3.46 0.69,-2.17 0.26,1.56 -0.15,5.31 -0.73,10.13 -1.31,14.96 -1.83,19.68 -2.34,24.39 -2.53,27.30 -2.73,30.21 -2.60,31.22 -2.46,32.23 -2.50,32.42 -2.54,32.61 -2.62,32.78 -2.70,32.95 -2.82,33.10 -2.93,33.25 -3.09,33.36 -3.24,33.48 -3.41,33.55 -3.59,33.63 -3.77,33.66 -3.96,33.69 -4.15,33.68 -4.34,33.66 -4.52,33.60 -4.70,33.55 -4.86,33.45 -5.02,33.34 -5.15,33.21 -5.29,33.07 -5.38,32.91 -5.48,32.75 -5.53,32.56 -5.59,32.38 -5.60,32.19 -5.61,32.00 -4.97,30.32 -4.33,28.63 -3.14,24.93 -1.94,21.23 -0.19,17.25 1.54,13.26 3.63,10.42 5.71,7.58 8.18,6.53 10.66,5.48 12.30,6.56 13.95,7.63 14.59,10.01 15.24,12.39 15.08,14.61 14.93,16.83 13.55,16.94 12.18,17.05 12.16,17.13 12.15,17.20 12.12,17.27 12.08,17.35 12.03,17.41 11.98,17.47 11.92,17.52 11.86,17.56 11.78,17.60 11.71,17.63 11.63,17.64 11.55,17.65 11.48,17.65 11.40,17.64 11.32,17.62 11.25,17.59 11.18,17.55 11.11,17.51 11.06,17.45 11.00,17.39 10.96,17.32 10.92,17.26 10.90,17.18 10.88,17.10 10.87,17.03 10.87,16.95 10.87,17.01 10.87,17.07 10.88,16.96 10.88,16.85 10.92,16.76 10.96,16.66 11.03,16.58 11.10,16.50 11.19,16.44 11.28,16.39 11.39,16.36 11.49,16.34 11.60,16.35 11.70,16.36 11.80,16.41 11.90,16.45 11.97,16.53 12.05,16.60 12.10,16.69 12.15,16.79 12.17,16.89 12.18,17.00 12.16,17.10 12.15,17.21 12.10,17.30 12.05,17.40 11.97,17.47 11.89,17.54 11.80,17.59 11.70,17.63 11.59,17.64 11.49,17.65 11.39,17.63 11.28,17.61 11.19,17.55 11.10,17.50 11.03,17.42 10.96,17.33 10.92,17.24 10.88,17.14 10.88,17.03 10.87,16.92 10.90,16.82 10.93,16.72 10.99,16.63 11.05,16.54 11.13,16.48 11.22,16.42 11.32,16.38 11.42,16.35 11.53,16.35 11.63,16.35 11.73,16.38 11.83,16.42 11.92,16.48 12.00,16.55 12.06,16.63 12.12,16.72 12.15,16.88 12.18,17.05 12.16,17.12 12.15,17.20 12.12,17.27 12.08,17.35 12.03,17.41 11.98,17.47 11.92,17.52 11.86,17.56 11.78,17.60 11.71,17.63 11.63,17.64 11.55,17.65 11.48,17.65 11.40,17.64 11.32,17.62 11.25,17.59 11.18,17.55 11.11,17.51 11.06,17.45 11.00,17.39 10.96,17.32 10.92,17.26 10.90,17.18 10.88,17.10 10.87,17.03 10.87,16.95 11.42,16.77 11.97,16.59 12.13,14.78 12.28,12.98 12.07,11.29 11.85,9.60 11.04,8.80 10.23,8.01 9.13,8.74 8.02,9.47 6.18,11.99 4.34,14.50 2.67,18.34 1.00,22.17 -0.21,25.98 -1.42,29.79 -1.94,31.01 -2.46,32.23 -2.50,32.42 -2.54,32.61 -2.62,32.78 -2.70,32.95 -2.82,33.10 -2.93,33.25 -3.09,33.36 -3.24,33.48 -3.41,33.55 -3.59,33.63 -3.77,33.66 -3.96,33.69 -4.15,33.68 -4.34,33.66 -4.52,33.60 -4.70,33.55 -4.86,33.45 -5.02,33.35 -5.15,33.21 -5.29,33.07 -5.38,32.91 -5.48,32.75 -5.53,32.56 -5.59,32.38 -5.60,32.19 -5.61,32.00 -5.74,31.00 -5.87,29.99 -5.63,27.01 -5.39,24.03 -4.79,19.32 -4.19,14.60 -3.56,9.79 -2.94,4.98 -2.46,1.09 -1.99,-2.79 -1.70,-3.80 -1.41,-4.81 -1.38,-4.96 -1.36,-5.12 -1.30,-5.26 -1.24,-5.41 -1.15,-5.53 -1.06,-5.66 -0.94,-5.76 -0.82,-5.86 -0.68,-5.93 -0.54,-6.00 -0.39,-6.03 -0.24,-6.07 -0.08,-6.06 0.06,-6.06 0.21,-6.02 0.36,-5.98 0.50,-5.90 0.63,-5.83 0.75,-5.72 0.86,-5.62 0.95,-5.49 1.03,-5.36 1.09,-5.21 1.14,-5.06 1.15,-4.91 1.17,-4.75 1.20,-4.05 1.23,-3.36 0.94,-1.67 0.65,0.01 0.64,0.09 0.63,0.17 0.60,0.24 0.57,0.31 0.52,0.38 0.48,0.44 0.42,0.49 0.36,0.54 0.29,0.58 0.21,0.61 0.14,0.63 0.06,0.65 -0.01,0.65 -0.09,0.64 -0.17,0.62 -0.24,0.60 -0.31,0.57 -0.38,0.53 -0.44,0.47 -0.50,0.42 -0.54,0.35 -0.58,0.29 -0.61,0.21 -0.64,0.14 -0.64,0.06 -0.65,-0.01 -0.65,-0.01 L -0.65,-0.01 Z"></path></g><g transform="translate(401.5895062216212 29.9446230012191) rotate(0 -2.4429510674076482 0.42505893903984315)" stroke="none"><path fill="#1e1e1e" d="M 0.42,0.52 Q 0.42,0.52 -0.20,1.37 -0.83,2.21 -2.08,2.60 -3.33,2.99 -4.21,2.10 -5.10,1.21 -4.04,0.10 -2.98,-0.99 -3.05,-1.04 -3.11,-1.08 -3.16,-1.14 -3.21,-1.20 -3.25,-1.28 -3.29,-1.35 -3.30,-1.42 -3.32,-1.50 -3.32,-1.58 -3.32,-1.66 -3.30,-1.74 -3.27,-1.81 -3.24,-1.88 -3.20,-1.95 -3.14,-2.01 -3.09,-2.07 -3.02,-2.11 -2.96,-2.15 -2.88,-2.18 -2.81,-2.21 -2.73,-2.21 -2.65,-2.22 -2.57,-2.21 -2.49,-2.20 -2.42,-2.17 -2.35,-2.14 -2.72,-2.10 -3.09,-2.07 -3.00,-2.12 -2.90,-2.18 -2.80,-2.20 -2.70,-2.22 -2.59,-2.21 -2.49,-2.20 -2.39,-2.15 -2.29,-2.10 -2.22,-2.03 -2.14,-1.96 -2.09,-1.86 -2.04,-1.77 -2.03,-1.66 -2.01,-1.56 -2.03,-1.45 -2.05,-1.35 -2.10,-1.26 -2.15,-1.16 -2.22,-1.09 -2.30,-1.02 -2.40,-0.97 -2.50,-0.93 -2.60,-0.92 -2.71,-0.91 -2.81,-0.93 -2.91,-0.96 -3.00,-1.01 -3.10,-1.07 -3.16,-1.15 -3.23,-1.23 -3.27,-1.33 -3.31,-1.43 -3.31,-1.53 -3.32,-1.64 -3.29,-1.74 -3.26,-1.84 -3.20,-1.93 -3.14,-2.02 -3.05,-2.08 -2.97,-2.15 -2.87,-2.18 -2.77,-2.21 -2.66,-2.21 -2.55,-2.21 -2.45,-2.18 -2.35,-2.14 -2.27,-2.08 -2.19,-2.01 -2.13,-1.92 -2.07,-1.84 -2.04,-1.73 -2.01,-1.63 -2.02,-1.52 -2.03,-1.42 -2.07,-1.32 -2.11,-1.22 -2.55,-1.11 -2.98,-0.99 -3.05,-1.04 -3.11,-1.08 -3.16,-1.14 -3.21,-1.20 -3.25,-1.27 -3.29,-1.35 -3.30,-1.42 -3.32,-1.50 -3.32,-1.58 -3.32,-1.66 -3.30,-1.74 -3.27,-1.81 -3.24,-1.88 -3.20,-1.95 -3.14,-2.01 -3.09,-2.07 -3.02,-2.11 -2.96,-2.15 -2.88,-2.18 -2.81,-2.21 -2.73,-2.21 -2.65,-2.22 -2.57,-2.21 -2.49,-2.20 -2.42,-2.17 -2.35,-2.14 -2.91,-0.63 -3.46,0.87 -2.88,0.60 -2.30,0.33 -1.36,-0.09 -0.42,-0.52 -0.35,-0.57 -0.28,-0.61 -0.21,-0.63 -0.13,-0.66 -0.05,-0.67 0.02,-0.67 0.10,-0.66 0.19,-0.65 0.26,-0.61 0.34,-0.58 0.40,-0.53 0.47,-0.48 0.52,-0.42 0.57,-0.36 0.60,-0.28 0.64,-0.21 0.66,-0.13 0.67,-0.05 0.67,0.02 0.66,0.11 0.64,0.18 0.62,0.26 0.58,0.33 0.54,0.40 0.48,0.46 0.42,0.52 0.42,0.52 L 0.42,0.52 Z"></path></g><g transform="translate(422.69663505453474 15.165977121055391) rotate(0 -1.8892110042164063 13.470804867763292)" stroke="none"><path fill="#1e1e1e" d="M 0.61,0.24 Q 0.61,0.24 0.36,1.55 0.12,2.87 -0.12,5.66 -0.37,8.46 -0.51,11.87 -0.65,15.27 -0.74,18.12 -0.83,20.96 -0.97,22.71 -1.11,24.46 -1.59,25.66 -2.07,26.86 -2.20,26.65 -2.33,26.43 -2.37,26.57 -2.42,26.70 -2.50,26.82 -2.58,26.93 -2.68,27.03 -2.79,27.12 -2.91,27.19 -3.04,27.26 -3.17,27.30 -3.31,27.33 -3.45,27.33 -3.59,27.33 -3.73,27.30 -3.87,27.27 -3.99,27.21 -4.12,27.14 -4.23,27.05 -4.33,26.96 -4.41,26.84 -4.50,26.73 -4.55,26.60 -4.60,26.47 -4.62,26.33 -4.64,26.19 -4.62,26.05 -4.61,25.90 -4.06,24.10 -3.51,22.30 -3.47,22.20 -3.43,22.10 -3.37,22.02 -3.30,21.93 -3.21,21.88 -3.12,21.82 -3.02,21.80 -2.91,21.77 -2.81,21.78 -2.70,21.79 -2.60,21.83 -2.51,21.87 -2.43,21.94 -2.35,22.01 -2.30,22.11 -2.24,22.20 -2.22,22.30 -2.20,22.41 -2.22,22.51 -2.23,22.62 -2.28,22.71 -2.33,22.81 -2.40,22.88 -2.48,22.96 -2.58,23.01 -2.67,23.05 -2.78,23.07 -2.88,23.08 -2.99,23.06 -3.09,23.04 -3.18,22.99 -3.27,22.93 -3.35,22.86 -3.42,22.78 -3.46,22.68 -3.50,22.58 -3.51,22.47 -3.52,22.37 -3.49,22.27 -3.46,22.16 -3.41,22.07 -3.35,21.98 -3.27,21.92 -3.18,21.85 -3.08,21.82 -2.98,21.78 -2.88,21.78 -2.77,21.77 -2.67,21.81 -2.57,21.84 -2.48,21.90 -2.40,21.96 -2.33,22.05 -2.27,22.13 -2.24,22.24 -2.21,22.34 -2.21,22.44 -2.22,22.55 -2.22,22.55 -2.22,22.55 -2.27,24.49 -2.33,26.43 -2.37,26.57 -2.42,26.70 -2.50,26.82 -2.58,26.93 -2.68,27.03 -2.79,27.12 -2.91,27.19 -3.04,27.26 -3.17,27.30 -3.31,27.33 -3.45,27.33 -3.59,27.33 -3.73,27.30 -3.87,27.27 -3.99,27.21 -4.12,27.14 -4.23,27.05 -4.33,26.96 -4.41,26.84 -4.50,26.73 -4.55,26.60 -4.60,26.47 -4.62,26.33 -4.64,26.19 -4.62,26.05 -4.61,25.90 -4.32,25.05 -4.04,24.20 -3.87,22.51 -3.71,20.82 -3.52,17.97 -3.34,15.12 -3.09,11.66 -2.84,8.19 -2.46,5.10 -2.07,2.01 -1.34,0.88 -0.61,-0.24 -0.57,-0.31 -0.53,-0.38 -0.48,-0.44 -0.42,-0.49 -0.36,-0.54 -0.29,-0.58 -0.22,-0.61 -0.14,-0.64 -0.06,-0.64 0.01,-0.65 0.08,-0.64 0.16,-0.63 0.24,-0.60 0.31,-0.57 0.37,-0.53 0.44,-0.48 0.49,-0.42 0.54,-0.36 0.58,-0.29 0.61,-0.22 0.63,-0.14 0.65,-0.06 0.65,0.01 0.65,0.09 0.63,0.16 0.60,0.24 0.61,0.24 L 0.61,0.24 Z"></path></g><g transform="translate(422.76178783114364 34.3259130762296) rotate(0 1.6937965778780608 -11.149378655917246)" stroke="none"><path fill="#1e1e1e" d="M -0.21,0.61 Q -0.21,0.61 -0.94,0.49 -1.67,0.36 -3.71,-2.31 -5.75,-4.98 -6.82,-7.29 -7.89,-9.60 -7.99,-12.10 -8.10,-14.60 -6.96,-16.79 -5.82,-18.98 -3.74,-20.34 -1.67,-21.71 0.86,-22.03 3.40,-22.35 5.73,-21.63 8.06,-20.91 9.47,-19.68 10.89,-18.45 11.09,-16.58 11.28,-14.70 10.03,-12.70 8.77,-10.71 6.90,-9.21 5.02,-7.70 2.32,-7.19 -0.37,-6.67 -0.44,-6.63 -0.51,-6.59 -0.58,-6.57 -0.66,-6.54 -0.74,-6.54 -0.82,-6.53 -0.89,-6.55 -0.97,-6.56 -1.04,-6.59 -1.12,-6.63 -1.18,-6.68 -1.24,-6.72 -1.29,-6.79 -1.34,-6.85 -1.37,-6.92 -1.40,-6.99 -1.42,-7.07 -1.43,-7.15 -1.43,-7.23 -1.42,-7.31 -1.40,-7.38 -1.38,-7.46 -1.33,-7.53 -1.29,-7.59 -1.24,-7.65 -1.18,-7.71 -1.29,-7.55 -1.40,-7.40 -1.35,-7.49 -1.30,-7.59 -1.22,-7.66 -1.14,-7.73 -1.05,-7.78 -0.95,-7.82 -0.84,-7.83 -0.74,-7.84 -0.64,-7.82 -0.53,-7.80 -0.44,-7.74 -0.35,-7.69 -0.28,-7.61 -0.21,-7.52 -0.17,-7.43 -0.13,-7.33 -0.13,-7.22 -0.12,-7.12 -0.15,-7.01 -0.18,-6.91 -0.24,-6.82 -0.30,-6.74 -0.39,-6.67 -0.47,-6.61 -0.57,-6.57 -0.67,-6.54 -0.78,-6.54 -0.89,-6.54 -0.99,-6.57 -1.09,-6.61 -1.17,-6.67 -1.25,-6.74 -1.31,-6.83 -1.37,-6.91 -1.40,-7.02 -1.43,-7.12 -1.42,-7.23 -1.42,-7.33 -1.38,-7.43 -1.34,-7.53 -1.27,-7.61 -1.20,-7.69 -1.11,-7.74 -1.02,-7.80 -0.91,-7.82 -0.81,-7.84 -0.70,-7.83 -0.60,-7.82 -0.50,-7.78 -0.41,-7.73 -0.33,-7.66 -0.25,-7.58 -0.20,-7.49 -0.15,-7.40 -0.14,-7.29 -0.12,-7.19 -0.25,-6.93 -0.37,-6.67 -0.44,-6.63 -0.51,-6.59 -0.58,-6.57 -0.66,-6.54 -0.74,-6.54 -0.82,-6.53 -0.89,-6.55 -0.97,-6.56 -1.04,-6.59 -1.12,-6.63 -1.18,-6.68 -1.24,-6.72 -1.29,-6.79 -1.34,-6.85 -1.37,-6.92 -1.40,-6.99 -1.42,-7.07 -1.43,-7.15 -1.43,-7.23 -1.42,-7.31 -1.40,-7.38 -1.38,-7.46 -1.33,-7.53 -1.29,-7.59 -1.24,-7.65 -1.18,-7.71 1.10,-8.75 3.39,-9.79 5.01,-11.02 6.62,-12.25 7.68,-13.58 8.74,-14.92 8.83,-16.01 8.92,-17.09 8.05,-17.80 7.19,-18.51 5.38,-19.16 3.58,-19.81 1.58,-19.64 -0.41,-19.47 -2.03,-18.53 -3.66,-17.59 -4.61,-16.03 -5.57,-14.48 -5.59,-12.50 -5.60,-10.53 -4.70,-8.41 -3.79,-6.29 -2.33,-3.78 -0.86,-1.26 -0.32,-0.94 0.21,-0.61 0.29,-0.58 0.36,-0.54 0.42,-0.49 0.48,-0.44 0.52,-0.38 0.57,-0.31 0.60,-0.24 0.63,-0.17 0.64,-0.09 0.65,-0.01 0.64,0.06 0.64,0.14 0.61,0.21 0.58,0.29 0.54,0.35 0.50,0.42 0.44,0.47 0.38,0.53 0.31,0.57 0.24,0.60 0.16,0.62 0.09,0.64 0.01,0.65 -0.06,0.65 -0.14,0.63 -0.21,0.61 -0.21,0.61 L -0.21,0.61 Z"></path></g><g transform="translate(437.745258118634 32.494932731969755) rotate(0 0.22800544913889098 -0.817409779310367)" stroke="none"><path fill="#1e1e1e" d="M -0.64,0.17 Q -0.64,0.17 -0.90,-0.77 -1.15,-1.72 -1.16,-1.82 -1.17,-1.93 -1.15,-2.03 -1.13,-2.14 -1.07,-2.23 -1.02,-2.32 -0.93,-2.39 -0.85,-2.45 -0.75,-2.49 -0.66,-2.53 -0.55,-2.54 -0.44,-2.54 -0.34,-2.52 -0.24,-2.49 -0.15,-2.43 -0.06,-2.37 -0.00,-2.28 0.05,-2.20 0.09,-2.10 0.12,-2.00 0.12,-1.89 0.12,-1.78 0.09,-1.68 0.05,-1.58 -0.00,-1.50 -0.07,-1.41 -0.15,-1.35 -0.24,-1.29 -0.34,-1.27 -0.45,-1.24 -0.55,-1.24 -0.66,-1.25 -0.76,-1.29 -0.86,-1.33 -0.94,-1.40 -1.02,-1.47 -1.07,-1.56 -1.13,-1.65 -1.15,-1.75 -1.17,-1.86 -1.16,-1.96 -1.15,-2.07 -1.10,-2.17 -1.06,-2.26 -0.99,-2.34 -0.91,-2.42 -0.82,-2.46 -0.72,-2.51 -0.62,-2.53 -0.51,-2.55 -0.41,-2.53 -0.30,-2.51 -0.21,-2.46 -0.12,-2.41 -0.04,-2.34 0.02,-2.26 0.06,-2.16 0.11,-2.07 0.11,-2.07 0.11,-2.07 0.37,-1.12 0.64,-0.17 0.65,-0.09 0.67,-0.01 0.66,0.06 0.65,0.14 0.62,0.21 0.60,0.29 0.55,0.36 0.51,0.43 0.45,0.48 0.39,0.54 0.32,0.58 0.25,0.62 0.17,0.64 0.09,0.66 0.01,0.66 -0.06,0.66 -0.14,0.65 -0.22,0.63 -0.29,0.59 -0.36,0.56 -0.42,0.51 -0.49,0.45 -0.53,0.39 -0.58,0.32 -0.61,0.25 -0.64,0.17 -0.64,0.17 L -0.64,0.17 Z"></path></g><g transform="translate(31.17227795089849 109.9193635987113) rotate(0 -1.2377618985440506 12.195628050643847)" stroke="none"><path fill="#1e1e1e" d="M -0.66,-0.20 Q -0.66,-0.20 -0.55,-1.28 -0.44,-2.36 -0.25,-3.59 -0.06,-4.82 -0.12,-5.73 -0.18,-6.64 -1.35,-6.09 -2.52,-5.54 -5.17,-2.37 -7.83,0.80 -10.62,5.62 -13.41,10.44 -15.16,15.70 -16.92,20.97 -16.99,24.23 -17.07,27.49 -15.67,28.68 -14.27,29.87 -11.84,29.34 -9.41,28.81 -7.26,27.80 -5.10,26.80 -3.76,26.09 -2.42,25.37 -1.34,25.25 -0.26,25.12 0.72,25.59 1.70,26.06 2.54,25.95 3.39,25.85 5.54,23.89 7.69,21.94 9.92,19.08 12.15,16.22 13.60,13.16 15.05,10.11 15.43,8.74 15.81,7.38 14.90,6.92 14.00,6.46 12.65,6.93 11.30,7.40 9.95,8.65 8.60,9.91 7.64,11.52 6.69,13.13 6.45,14.73 6.21,16.34 6.39,17.80 6.58,19.27 6.57,19.38 6.57,19.48 6.53,19.58 6.49,19.68 6.42,19.76 6.35,19.85 6.26,19.90 6.17,19.96 6.07,19.98 5.97,20.01 5.86,20.00 5.76,19.99 5.66,19.94 5.56,19.90 5.48,19.83 5.41,19.75 5.35,19.66 5.30,19.57 5.29,19.46 5.27,19.36 5.28,19.25 5.30,19.15 5.35,19.05 5.40,18.96 5.47,18.89 5.55,18.81 5.64,18.77 5.74,18.72 5.85,18.71 5.95,18.69 6.05,18.72 6.16,18.74 6.25,18.79 6.34,18.85 6.41,18.93 6.48,19.01 6.52,19.10 6.56,19.20 6.57,19.31 6.58,19.41 6.55,19.52 6.52,19.62 6.46,19.71 6.41,19.80 6.32,19.86 6.24,19.93 6.14,19.96 6.04,20.00 5.93,20.00 5.82,20.00 5.72,19.97 5.62,19.93 5.54,19.87 5.45,19.81 5.39,19.72 5.33,19.63 5.30,19.53 5.27,19.43 5.27,19.43 5.27,19.43 5.08,17.85 4.90,16.26 4.86,14.27 4.83,12.27 5.76,10.11 6.70,7.94 8.56,6.24 10.43,4.55 12.68,4.16 14.93,3.78 16.50,4.94 18.07,6.11 17.93,8.74 17.79,11.37 16.16,14.72 14.53,18.07 12.08,21.16 9.63,24.25 6.76,26.48 3.88,28.71 2.16,28.72 0.44,28.72 -0.30,28.40 -1.06,28.07 -2.43,28.84 -3.81,29.62 -6.36,30.77 -8.92,31.93 -12.20,32.24 -15.47,32.54 -17.72,30.41 -19.97,28.27 -20.00,24.13 -20.02,19.98 -18.13,14.39 -16.23,8.80 -13.26,3.73 -10.28,-1.33 -7.04,-4.89 -3.80,-8.44 -1.86,-8.99 0.08,-9.53 1.32,-8.26 2.56,-6.99 2.51,-5.63 2.47,-4.26 2.09,-2.98 1.71,-1.69 1.19,-0.74 0.66,0.20 0.63,0.28 0.59,0.36 0.54,0.43 0.49,0.49 0.42,0.54 0.36,0.60 0.28,0.63 0.20,0.66 0.12,0.68 0.04,0.70 -0.04,0.69 -0.12,0.68 -0.20,0.66 -0.28,0.63 -0.36,0.59 -0.43,0.55 -0.49,0.49 -0.55,0.43 -0.59,0.35 -0.64,0.28 -0.66,0.20 -0.69,0.12 -0.69,0.04 -0.69,-0.04 -0.68,-0.12 -0.66,-0.20 -0.66,-0.20 L -0.66,-0.20 Z"></path></g><g transform="translate(63.74502958306488 114.4968144593609) rotate(0 0.35829636786058927 12.097569609568438)" stroke="none"><path fill="#1e1e1e" d="M -0.69,0.11 Q -0.69,0.11 -1.13,-1.06 -1.57,-2.24 -1.77,-2.74 -1.98,-3.24 -1.98,-3.38 -1.99,-3.53 -1.96,-3.68 -1.93,-3.82 -1.87,-3.95 -1.81,-4.09 -1.71,-4.20 -1.62,-4.32 -1.50,-4.41 -1.39,-4.50 -1.25,-4.55 -1.12,-4.61 -0.97,-4.64 -0.83,-4.66 -0.68,-4.65 -0.53,-4.64 -0.39,-4.59 -0.25,-4.55 -0.13,-4.47 -0.00,-4.39 0.09,-4.29 0.19,-4.18 0.27,-4.05 0.34,-3.93 0.39,-3.78 0.43,-3.64 -0.45,-2.64 -1.34,-1.64 -1.81,-0.45 -2.29,0.74 -2.31,2.57 -2.33,4.40 -1.50,6.21 -0.67,8.03 0.68,9.68 2.04,11.33 3.30,13.04 4.56,14.76 5.03,16.82 5.50,18.88 4.74,21.10 3.99,23.32 2.59,25.03 1.19,26.74 0.15,27.42 -0.87,28.10 -0.97,28.19 -1.08,28.29 -1.20,28.36 -1.32,28.43 -1.46,28.47 -1.60,28.51 -1.74,28.51 -1.88,28.51 -2.02,28.48 -2.16,28.45 -2.29,28.39 -2.41,28.33 -2.52,28.24 -2.63,28.14 -2.72,28.03 -2.80,27.92 -2.85,27.78 -2.91,27.65 -2.93,27.51 -2.95,27.37 -2.94,27.23 -2.92,27.09 -2.88,26.95 -2.83,26.82 -2.75,26.70 -2.67,26.58 -2.19,25.35 -1.70,24.11 -1.64,24.02 -1.58,23.93 -1.49,23.87 -1.41,23.81 -1.31,23.77 -1.21,23.74 -1.10,23.74 -1.00,23.74 -0.90,23.77 -0.79,23.81 -0.71,23.87 -0.63,23.93 -0.57,24.02 -0.51,24.11 -0.48,24.21 -0.45,24.32 -0.46,24.42 -0.46,24.53 -0.50,24.63 -0.54,24.72 -0.61,24.81 -0.68,24.89 -0.77,24.94 -0.86,25.00 -0.96,25.02 -1.07,25.04 -1.17,25.03 -1.28,25.02 -1.37,24.97 -1.47,24.93 -1.55,24.86 -1.63,24.78 -1.68,24.69 -1.72,24.60 -1.74,24.49 -1.76,24.39 -1.74,24.28 -1.72,24.18 -1.67,24.08 -1.63,23.99 -1.55,23.92 -1.47,23.84 -1.37,23.80 -1.28,23.75 -1.17,23.74 -1.07,23.73 -0.96,23.75 -0.86,23.78 -0.77,23.83 -0.68,23.89 -0.61,23.97 -0.54,24.05 -0.50,24.15 -0.46,24.25 -0.46,24.35 -0.45,24.46 -0.48,24.56 -0.51,24.66 -0.51,24.66 -0.51,24.66 -0.69,26.38 -0.87,28.10 -0.97,28.19 -1.08,28.29 -1.20,28.36 -1.32,28.43 -1.46,28.47 -1.60,28.51 -1.74,28.51 -1.88,28.51 -2.02,28.48 -2.16,28.45 -2.29,28.39 -2.41,28.33 -2.52,28.24 -2.63,28.14 -2.72,28.03 -2.80,27.92 -2.85,27.78 -2.91,27.65 -2.93,27.51 -2.95,27.37 -2.94,27.23 -2.92,27.09 -2.88,26.95 -2.83,26.82 -2.75,26.70 -2.67,26.58 -1.79,25.77 -0.91,24.96 0.25,23.61 1.41,22.26 2.12,20.72 2.83,19.18 2.58,17.72 2.34,16.26 1.14,14.64 -0.05,13.01 -1.58,11.05 -3.11,9.10 -4.05,6.75 -4.99,4.41 -4.86,2.03 -4.72,-0.33 -3.35,-1.79 -1.98,-3.24 -1.98,-3.38 -1.99,-3.53 -1.96,-3.68 -1.93,-3.82 -1.87,-3.95 -1.81,-4.09 -1.71,-4.20 -1.62,-4.32 -1.50,-4.41 -1.39,-4.50 -1.25,-4.55 -1.12,-4.61 -0.97,-4.64 -0.83,-4.66 -0.68,-4.65 -0.53,-4.64 -0.39,-4.59 -0.25,-4.55 -0.13,-4.47 -0.00,-4.39 0.09,-4.29 0.19,-4.18 0.27,-4.05 0.34,-3.93 0.39,-3.78 0.43,-3.64 0.59,-3.14 0.74,-2.64 0.72,-1.37 0.69,-0.11 0.69,-0.03 0.69,0.05 0.68,0.13 0.66,0.21 0.63,0.29 0.59,0.37 0.54,0.43 0.48,0.50 0.42,0.55 0.35,0.60 0.27,0.63 0.19,0.67 0.11,0.68 0.03,0.70 -0.05,0.69 -0.13,0.68 -0.21,0.66 -0.29,0.63 -0.36,0.59 -0.44,0.54 -0.49,0.48 -0.55,0.42 -0.60,0.35 -0.64,0.27 -0.66,0.19 -0.69,0.11 -0.69,0.11 L -0.69,0.11 Z"></path></g><g transform="translate(99.6401923253863 98.6718752809823) rotate(0 -9.315800688600802 17.852087625525684)" stroke="none"><path fill="#1e1e1e" d="M 0.58,0.31 Q 0.58,0.31 0.12,1.51 -0.33,2.71 -1.29,5.20 -2.25,7.69 -3.75,11.40 -5.26,15.12 -7.14,19.21 -9.03,23.29 -11.03,26.66 -13.03,30.02 -14.67,31.97 -16.31,33.92 -17.22,34.14 -18.13,34.36 -18.24,34.46 -18.35,34.57 -18.49,34.65 -18.62,34.72 -18.77,34.76 -18.92,34.81 -19.08,34.81 -19.23,34.81 -19.38,34.78 -19.53,34.75 -19.67,34.68 -19.81,34.61 -19.93,34.52 -20.05,34.42 -20.14,34.29 -20.24,34.17 -20.29,34.02 -20.35,33.88 -20.38,33.73 -20.40,33.57 -20.39,33.42 -20.37,33.26 -20.32,33.12 -20.27,32.97 -20.19,32.84 -20.10,32.71 -19.99,31.49 -19.87,30.27 -18.26,27.54 -16.65,24.81 -14.77,22.74 -12.89,20.66 -10.90,20.01 -8.91,19.36 -7.89,20.33 -6.86,21.30 -6.53,23.90 -6.20,26.51 -6.00,28.36 -5.79,30.22 -5.21,30.77 -4.64,31.33 -3.52,31.09 -2.41,30.84 -0.45,29.64 1.50,28.43 1.59,28.38 1.69,28.34 1.79,28.32 1.90,28.31 2.00,28.33 2.11,28.35 2.20,28.40 2.29,28.45 2.36,28.53 2.44,28.61 2.48,28.70 2.52,28.80 2.53,28.91 2.54,29.01 2.51,29.12 2.49,29.22 2.43,29.31 2.38,29.40 2.29,29.47 2.21,29.53 2.11,29.57 2.01,29.61 1.90,29.61 1.80,29.61 1.70,29.58 1.60,29.55 1.51,29.49 1.42,29.43 1.36,29.34 1.30,29.26 1.27,29.16 1.23,29.06 1.24,28.95 1.24,28.84 1.27,28.74 1.31,28.64 1.38,28.56 1.44,28.48 1.53,28.42 1.62,28.36 1.72,28.34 1.83,28.31 1.93,28.32 2.04,28.33 2.14,28.37 2.24,28.41 2.31,28.48 2.39,28.55 2.45,28.64 2.50,28.73 2.52,28.84 2.54,28.94 2.53,29.05 2.51,29.15 2.47,29.25 2.42,29.34 2.34,29.42 2.27,29.50 2.27,29.50 2.27,29.50 0.11,30.99 -2.04,32.49 -3.68,32.82 -5.32,33.14 -6.64,32.01 -7.95,30.88 -8.24,28.78 -8.53,26.68 -8.56,24.58 -8.59,22.47 -9.13,21.65 -9.66,20.83 -10.63,21.37 -11.61,21.91 -13.26,23.86 -14.92,25.81 -16.25,28.22 -17.58,30.63 -17.85,32.50 -18.13,34.36 -18.24,34.46 -18.35,34.57 -18.49,34.65 -18.62,34.72 -18.77,34.76 -18.92,34.81 -19.08,34.81 -19.23,34.81 -19.38,34.78 -19.53,34.75 -19.67,34.68 -19.81,34.61 -19.93,34.52 -20.05,34.42 -20.14,34.29 -20.24,34.17 -20.29,34.02 -20.35,33.88 -20.38,33.73 -20.40,33.57 -20.39,33.42 -20.37,33.26 -20.32,33.12 -20.27,32.97 -20.19,32.84 -20.10,32.71 -19.12,32.39 -18.13,32.06 -16.72,30.35 -15.31,28.63 -13.31,25.42 -11.30,22.20 -9.33,18.22 -7.35,14.25 -5.75,10.59 -4.15,6.93 -3.10,4.36 -2.06,1.79 -1.32,0.74 -0.58,-0.31 -0.54,-0.37 -0.49,-0.44 -0.43,-0.49 -0.37,-0.54 -0.30,-0.58 -0.23,-0.62 -0.15,-0.64 -0.07,-0.65 0.00,-0.65 0.08,-0.65 0.16,-0.63 0.23,-0.61 0.30,-0.58 0.38,-0.54 0.43,-0.49 0.49,-0.43 0.54,-0.37 0.58,-0.30 0.61,-0.23 0.64,-0.15 0.65,-0.07 0.66,0.00 0.65,0.08 0.64,0.16 0.61,0.23 0.58,0.31 0.58,0.31 L 0.58,0.31 Z"></path></g><g transform="translate(118.14151741836218 117.89721279919894) rotate(0 7.035709610971196 6.473810816207816)" stroke="none"><path fill="#1e1e1e" d="M 0.59,-0.32 Q 0.59,-0.32 1.26,0.60 1.92,1.53 3.19,3.37 4.46,5.21 6.12,6.97 7.78,8.74 9.39,9.75 11.01,10.75 12.58,11.23 14.16,11.70 14.26,11.74 14.36,11.77 14.45,11.83 14.54,11.89 14.60,11.98 14.66,12.07 14.69,12.17 14.72,12.27 14.71,12.38 14.71,12.49 14.67,12.58 14.63,12.68 14.57,12.77 14.50,12.85 14.41,12.90 14.32,12.96 14.22,12.98 14.11,13.01 14.01,13.00 13.90,12.99 13.80,12.95 13.71,12.90 13.63,12.83 13.55,12.76 13.50,12.67 13.45,12.57 13.43,12.47 13.41,12.36 13.43,12.26 13.44,12.15 13.49,12.06 13.54,11.97 13.61,11.89 13.69,11.82 13.79,11.77 13.88,11.72 13.99,11.71 14.09,11.70 14.20,11.72 14.30,11.74 14.39,11.79 14.48,11.85 14.55,11.93 14.62,12.01 14.66,12.10 14.71,12.20 14.71,12.31 14.72,12.41 14.69,12.52 14.67,12.62 14.61,12.71 14.55,12.80 14.47,12.86 14.38,12.93 14.28,12.96 14.18,13.00 14.08,13.00 13.97,13.00 13.97,13.00 13.97,13.00 12.10,12.56 10.22,12.12 8.31,11.10 6.40,10.07 4.61,8.20 2.82,6.33 1.53,4.39 0.24,2.44 -0.17,1.38 -0.59,0.32 -0.62,0.24 -0.65,0.17 -0.66,0.09 -0.67,0.01 -0.67,-0.07 -0.66,-0.15 -0.63,-0.22 -0.60,-0.30 -0.56,-0.37 -0.51,-0.44 -0.45,-0.49 -0.39,-0.55 -0.32,-0.59 -0.25,-0.63 -0.17,-0.65 -0.09,-0.67 -0.01,-0.67 0.07,-0.67 0.15,-0.65 0.23,-0.63 0.30,-0.60 0.37,-0.56 0.43,-0.51 0.50,-0.45 0.54,-0.39 0.59,-0.32 0.59,-0.32 L 0.59,-0.32 Z"></path></g><g transform="translate(123.28800139062088 122.47463439085641) rotate(0 -6.51454593608446 7.847075343394863)" stroke="none"><path fill="#1e1e1e" d="M 0.50,0.47 Q 0.50,0.47 -0.27,1.42 -1.05,2.36 -1.94,3.37 -2.83,4.37 -5.50,7.74 -8.17,11.11 -8.65,12.56 -9.13,14.01 -9.18,14.07 -9.24,14.12 -9.31,14.16 -9.38,14.20 -9.45,14.22 -9.53,14.24 -9.61,14.25 -9.69,14.25 -9.77,14.24 -9.84,14.22 -9.91,14.19 -9.99,14.15 -10.05,14.10 -10.11,14.05 -10.16,13.99 -10.20,13.93 -10.24,13.85 -10.27,13.78 -10.28,13.70 -10.29,13.62 -10.29,13.55 -10.28,13.47 -10.26,13.39 -10.23,13.32 -10.19,13.25 -10.15,13.18 -9.88,13.06 -9.61,12.94 -9.51,12.96 -9.40,12.98 -9.31,13.04 -9.22,13.09 -9.15,13.17 -9.08,13.25 -9.04,13.35 -9.00,13.45 -8.99,13.55 -8.98,13.66 -9.01,13.76 -9.04,13.86 -9.10,13.95 -9.15,14.04 -9.24,14.11 -9.32,14.17 -9.42,14.21 -9.52,14.24 -9.63,14.24 -9.73,14.25 -9.84,14.21 -9.94,14.18 -10.02,14.12 -10.11,14.05 -10.17,13.97 -10.23,13.88 -10.26,13.78 -10.29,13.68 -10.28,13.57 -10.28,13.46 -10.24,13.36 -10.20,13.27 -10.14,13.18 -10.07,13.10 -9.98,13.05 -9.89,12.99 -9.78,12.97 -9.68,12.94 -9.57,12.95 -9.47,12.96 -9.37,13.00 -9.28,13.05 -9.20,13.12 -9.12,13.19 -9.07,13.29 -9.02,13.38 -9.00,13.48 -8.98,13.59 -9.00,13.69 -9.01,13.80 -9.06,13.89 -9.11,13.99 -9.18,14.06 -9.26,14.14 -9.36,14.18 -9.45,14.23 -9.29,14.12 -9.13,14.01 -9.18,14.07 -9.24,14.12 -9.31,14.16 -9.38,14.20 -9.45,14.22 -9.53,14.24 -9.61,14.25 -9.69,14.25 -9.76,14.24 -9.84,14.22 -9.91,14.19 -9.99,14.15 -10.05,14.10 -10.11,14.05 -10.16,13.99 -10.20,13.93 -10.24,13.85 -10.27,13.78 -10.28,13.70 -10.29,13.63 -10.29,13.55 -10.28,13.47 -10.26,13.39 -10.23,13.32 -10.19,13.25 -10.15,13.18 -9.97,11.49 -9.80,9.79 -7.01,6.43 -4.22,3.06 -3.26,2.11 -2.31,1.16 -1.40,0.34 -0.50,-0.47 -0.43,-0.53 -0.37,-0.58 -0.29,-0.62 -0.22,-0.65 -0.14,-0.67 -0.05,-0.69 0.02,-0.68 0.10,-0.68 0.18,-0.66 0.26,-0.63 0.34,-0.59 0.41,-0.55 0.47,-0.49 0.53,-0.44 0.58,-0.37 0.62,-0.29 0.65,-0.22 0.67,-0.14 0.68,-0.05 0.69,0.02 0.68,0.10 0.66,0.19 0.63,0.26 0.60,0.34 0.55,0.41 0.50,0.47 0.50,0.47 L 0.50,0.47 Z"></path></g><g transform="translate(153.64580008727052 118.22416207642704) rotate(0 4.039018480372363 1.1116729095132314)" stroke="none"><path fill="#1e1e1e" d="M 0.15,-0.63 Q 0.15,-0.63 2.24,-0.19 4.33,0.24 6.30,0.92 8.27,1.59 8.37,1.64 8.46,1.69 8.54,1.76 8.61,1.84 8.66,1.94 8.70,2.03 8.72,2.14 8.73,2.24 8.71,2.35 8.69,2.45 8.63,2.54 8.58,2.63 8.50,2.70 8.42,2.78 8.32,2.82 8.23,2.86 8.12,2.86 8.01,2.87 7.91,2.85 7.81,2.82 7.72,2.76 7.63,2.70 7.56,2.62 7.50,2.54 7.46,2.44 7.43,2.34 7.43,2.23 7.42,2.12 7.46,2.02 7.49,1.92 7.55,1.84 7.61,1.75 7.70,1.69 7.79,1.63 7.89,1.60 7.99,1.57 8.10,1.57 8.20,1.57 8.30,1.61 8.40,1.65 8.48,1.72 8.57,1.78 8.62,1.87 8.68,1.96 8.70,2.07 8.73,2.17 8.72,2.28 8.71,2.38 8.67,2.48 8.62,2.58 8.55,2.66 8.48,2.73 8.39,2.79 8.29,2.84 8.19,2.86 8.08,2.87 7.98,2.86 7.87,2.84 7.87,2.84 7.87,2.84 5.93,2.27 3.98,1.71 1.91,1.17 -0.15,0.63 -0.22,0.61 -0.29,0.58 -0.36,0.54 -0.43,0.49 -0.48,0.43 -0.53,0.37 -0.57,0.30 -0.61,0.23 -0.63,0.16 -0.65,0.08 -0.65,0.00 -0.65,-0.07 -0.63,-0.14 -0.61,-0.22 -0.58,-0.29 -0.54,-0.36 -0.49,-0.42 -0.44,-0.48 -0.37,-0.53 -0.31,-0.57 -0.23,-0.60 -0.16,-0.63 -0.08,-0.64 -0.00,-0.65 0.07,-0.64 0.15,-0.63 0.15,-0.63 L 0.15,-0.63 Z"></path></g><g transform="translate(151.88688000177575 131.36798839797007) rotate(0 6.51454593608446 0.7847163150371443)" stroke="none"><path fill="#1e1e1e" d="M 0.10,-0.64 Q 0.10,-0.64 2.88,-0.37 5.66,-0.09 7.69,0.17 9.71,0.44 11.40,0.68 13.09,0.91 13.19,0.94 13.29,0.96 13.38,1.02 13.47,1.08 13.53,1.17 13.60,1.25 13.64,1.35 13.67,1.45 13.67,1.56 13.67,1.66 13.64,1.76 13.61,1.86 13.55,1.95 13.48,2.03 13.40,2.10 13.31,2.16 13.21,2.19 13.10,2.22 13.00,2.21 12.89,2.21 12.79,2.17 12.69,2.13 12.61,2.06 12.53,2.00 12.47,1.91 12.42,1.82 12.39,1.71 12.37,1.61 12.38,1.50 12.39,1.40 12.43,1.30 12.48,1.20 12.55,1.13 12.62,1.05 12.71,1.00 12.81,0.95 12.91,0.93 13.02,0.91 13.12,0.92 13.23,0.94 13.32,0.99 13.41,1.04 13.49,1.11 13.56,1.19 13.61,1.28 13.65,1.38 13.67,1.49 13.68,1.59 13.66,1.70 13.64,1.80 13.58,1.89 13.53,1.98 13.45,2.05 13.37,2.12 13.27,2.16 13.17,2.20 13.07,2.21 12.96,2.22 12.96,2.22 12.96,2.22 11.27,2.13 9.57,2.04 7.46,1.97 5.34,1.89 2.61,1.27 -0.10,0.64 -0.18,0.62 -0.25,0.60 -0.32,0.56 -0.39,0.52 -0.45,0.46 -0.50,0.41 -0.55,0.34 -0.59,0.28 -0.61,0.20 -0.64,0.13 -0.64,0.05 -0.65,-0.02 -0.64,-0.10 -0.63,-0.18 -0.59,-0.25 -0.56,-0.32 -0.52,-0.39 -0.47,-0.45 -0.41,-0.50 -0.35,-0.55 -0.27,-0.58 -0.20,-0.62 -0.12,-0.63 -0.05,-0.65 0.02,-0.65 0.10,-0.64 0.10,-0.64 L 0.10,-0.64 Z"></path></g><g transform="translate(189.34552645150933 124.89415563001813) rotate(0 9.446091607322444 0.45775972056102887)" stroke="none"><path fill="#1e1e1e" d="M -0.31,-0.60 Q -0.31,-0.60 1.02,-1.50 2.37,-2.41 3.60,-4.01 4.83,-5.61 5.69,-7.39 6.56,-9.16 6.73,-10.56 6.90,-11.95 5.99,-12.13 5.08,-12.32 4.13,-10.53 3.18,-8.74 2.68,-5.26 2.18,-1.79 2.45,1.84 2.72,5.47 4.02,8.15 5.33,10.83 7.30,11.60 9.26,12.37 11.58,11.21 13.90,10.05 15.11,9.24 16.32,8.42 17.44,7.34 18.55,6.27 18.64,6.20 18.73,6.14 18.83,6.11 18.93,6.08 19.04,6.08 19.14,6.09 19.24,6.12 19.34,6.16 19.42,6.23 19.51,6.29 19.56,6.38 19.62,6.47 19.65,6.57 19.67,6.68 19.66,6.78 19.65,6.89 19.61,6.99 19.57,7.08 19.50,7.16 19.43,7.24 19.34,7.30 19.24,7.35 19.14,7.37 19.03,7.39 18.93,7.37 18.82,7.36 18.73,7.31 18.63,7.26 18.56,7.19 18.48,7.11 18.44,7.02 18.39,6.92 18.38,6.82 18.36,6.71 18.38,6.61 18.40,6.50 18.45,6.41 18.51,6.32 18.59,6.25 18.66,6.18 18.76,6.13 18.86,6.09 18.97,6.08 19.07,6.08 19.17,6.10 19.28,6.13 19.37,6.19 19.46,6.24 19.52,6.33 19.59,6.41 19.63,6.51 19.66,6.61 19.67,6.71 19.67,6.82 19.64,6.92 19.61,7.02 19.54,7.11 19.48,7.20 19.48,7.20 19.48,7.20 18.32,8.39 17.15,9.59 15.90,10.51 14.65,11.44 11.88,13.06 9.10,14.69 6.13,13.60 3.15,12.50 1.48,9.12 -0.18,5.74 -0.40,1.75 -0.62,-2.24 0.11,-6.18 0.84,-10.12 2.44,-12.34 4.04,-14.56 5.62,-14.72 7.20,-14.89 8.20,-13.42 9.20,-11.95 8.90,-10.06 8.60,-8.17 7.56,-6.20 6.53,-4.23 4.96,-2.41 3.39,-0.59 1.85,0.00 0.31,0.60 0.23,0.63 0.16,0.65 0.07,0.66 -0.00,0.67 -0.08,0.66 -0.16,0.65 -0.24,0.62 -0.31,0.60 -0.38,0.55 -0.45,0.50 -0.50,0.44 -0.55,0.38 -0.59,0.31 -0.63,0.23 -0.65,0.15 -0.67,0.08 -0.67,-0.00 -0.67,-0.08 -0.65,-0.16 -0.63,-0.24 -0.59,-0.31 -0.55,-0.38 -0.50,-0.44 -0.44,-0.50 -0.38,-0.55 -0.31,-0.60 -0.31,-0.60 L -0.31,-0.60 Z"></path></g><g transform="translate(213.6447608413602 84.61255878730935) rotate(0 1.433229374930761 8.729850099507473)" stroke="none"><path fill="#1e1e1e" d="M 0.67,0.01 Q 0.67,0.01 0.88,2.50 1.10,4.99 1.11,7.83 1.11,10.68 1.33,12.59 1.55,14.49 1.97,15.13 2.40,15.77 2.40,15.89 2.40,16.01 2.37,16.13 2.35,16.25 2.29,16.36 2.23,16.47 2.15,16.56 2.07,16.65 1.97,16.72 1.87,16.79 1.76,16.83 1.65,16.88 1.53,16.89 1.41,16.91 1.28,16.89 1.16,16.88 1.05,16.84 0.94,16.79 0.84,16.73 0.73,16.66 0.65,16.57 0.57,16.48 0.51,16.37 0.46,16.26 0.43,16.14 0.40,16.02 1.42,14.07 2.44,12.12 2.50,12.03 2.55,11.94 2.63,11.87 2.71,11.80 2.81,11.76 2.91,11.71 3.01,11.71 3.12,11.70 3.22,11.73 3.32,11.75 3.41,11.81 3.50,11.87 3.57,11.96 3.63,12.04 3.67,12.14 3.70,12.24 3.70,12.35 3.71,12.45 3.67,12.55 3.64,12.65 3.58,12.74 3.51,12.82 3.43,12.89 3.34,12.95 3.24,12.98 3.14,13.01 3.03,13.00 2.92,13.00 2.82,12.96 2.73,12.92 2.64,12.85 2.56,12.79 2.51,12.70 2.45,12.61 2.43,12.50 2.40,12.40 2.41,12.29 2.42,12.19 2.47,12.09 2.51,11.99 2.58,11.91 2.65,11.84 2.75,11.79 2.84,11.73 2.94,11.72 3.05,11.70 3.15,11.71 3.26,11.73 3.35,11.78 3.45,11.83 3.52,11.90 3.60,11.98 3.64,12.07 3.69,12.17 3.70,12.28 3.71,12.38 3.69,12.49 3.67,12.59 3.67,12.59 3.67,12.59 3.04,14.18 2.40,15.77 2.40,15.89 2.40,16.01 2.37,16.13 2.35,16.25 2.29,16.36 2.23,16.47 2.15,16.56 2.07,16.65 1.97,16.72 1.87,16.79 1.76,16.83 1.65,16.88 1.53,16.89 1.41,16.91 1.28,16.89 1.16,16.88 1.05,16.84 0.94,16.79 0.84,16.73 0.73,16.66 0.65,16.57 0.57,16.48 0.52,16.37 0.46,16.26 0.43,16.14 0.40,16.02 -0.17,15.53 -0.75,15.03 -1.06,12.85 -1.36,10.68 -1.34,7.80 -1.32,4.93 -1.00,2.46 -0.67,-0.01 -0.65,-0.09 -0.64,-0.17 -0.61,-0.25 -0.58,-0.32 -0.53,-0.39 -0.49,-0.45 -0.43,-0.50 -0.36,-0.56 -0.29,-0.59 -0.22,-0.63 -0.14,-0.65 -0.06,-0.66 0.01,-0.66 0.09,-0.66 0.17,-0.64 0.25,-0.62 0.32,-0.58 0.39,-0.54 0.45,-0.48 0.51,-0.43 0.55,-0.36 0.60,-0.29 0.62,-0.22 0.65,-0.14 0.66,-0.06 0.67,0.01 0.67,0.01 L 0.67,0.01 Z"></path></g><g transform="translate(217.03235399711633 72.51499649498902) rotate(0 -0.22800544913894782 1.4059287224680759)" stroke="none"><path fill="#1e1e1e" d="M 0.66,0.10 Q 0.66,0.10 0.39,1.52 0.12,2.94 0.08,3.04 0.04,3.14 -0.02,3.22 -0.09,3.30 -0.18,3.36 -0.27,3.42 -0.37,3.44 -0.48,3.46 -0.58,3.45 -0.69,3.44 -0.79,3.40 -0.88,3.35 -0.96,3.28 -1.04,3.21 -1.09,3.11 -1.14,3.02 -1.16,2.92 -1.17,2.81 -1.16,2.71 -1.14,2.60 -1.09,2.51 -1.04,2.41 -0.96,2.34 -0.89,2.27 -0.79,2.22 -0.70,2.18 -0.59,2.16 -0.48,2.15 -0.38,2.17 -0.28,2.20 -0.19,2.25 -0.09,2.30 -0.02,2.38 0.03,2.47 0.07,2.56 0.11,2.66 0.12,2.77 0.13,2.87 0.10,2.98 0.07,3.08 0.01,3.17 -0.04,3.26 -0.12,3.32 -0.21,3.39 -0.31,3.42 -0.41,3.45 -0.51,3.45 -0.62,3.46 -0.72,3.42 -0.82,3.39 -0.91,3.32 -0.99,3.26 -1.05,3.17 -1.11,3.09 -1.14,2.98 -1.17,2.88 -1.16,2.78 -1.16,2.67 -1.16,2.67 -1.16,2.67 -0.91,1.28 -0.66,-0.10 -0.64,-0.18 -0.61,-0.26 -0.57,-0.33 -0.53,-0.40 -0.48,-0.45 -0.42,-0.51 -0.35,-0.56 -0.29,-0.60 -0.21,-0.63 -0.13,-0.65 -0.05,-0.66 0.02,-0.67 0.10,-0.65 0.18,-0.64 0.25,-0.61 0.33,-0.58 0.39,-0.53 0.46,-0.48 0.51,-0.42 0.56,-0.36 0.60,-0.28 0.63,-0.21 0.65,-0.13 0.66,-0.05 0.66,0.02 0.66,0.10 0.66,0.10 L 0.66,0.10 Z"></path></g><g transform="translate(241.3316176559593 68.85302117197324) rotate(0 -4.136747645285595 13.568892577830923)" stroke="none"><path fill="#1e1e1e" d="M 0.63,0.24 Q 0.63,0.24 -0.56,3.90 -1.76,7.57 -3.30,11.02 -4.84,14.47 -6.34,17.17 -7.85,19.86 -9.02,21.48 -10.19,23.10 -10.72,23.39 -11.25,23.69 -11.34,23.79 -11.44,23.89 -11.56,23.97 -11.68,24.05 -11.81,24.09 -11.94,24.14 -12.08,24.15 -12.22,24.17 -12.36,24.15 -12.50,24.13 -12.63,24.07 -12.76,24.02 -12.88,23.94 -12.99,23.85 -13.08,23.75 -13.18,23.64 -13.24,23.51 -13.30,23.39 -13.33,23.25 -13.36,23.11 -13.36,22.97 -13.35,22.83 -13.32,22.69 -13.28,22.55 -13.21,22.43 -13.14,22.31 -13.08,21.73 -13.02,21.15 -12.39,19.95 -11.76,18.74 -10.57,17.97 -9.37,17.20 -8.33,17.59 -7.29,17.98 -6.43,19.46 -5.58,20.94 -4.94,22.34 -4.29,23.74 -3.52,24.42 -2.74,25.09 -1.30,25.04 0.13,24.98 2.28,24.25 4.43,23.52 4.53,23.50 4.64,23.47 4.74,23.48 4.85,23.49 4.94,23.53 5.04,23.57 5.12,23.64 5.20,23.72 5.25,23.81 5.30,23.90 5.32,24.01 5.34,24.11 5.33,24.22 5.31,24.32 5.26,24.42 5.22,24.51 5.14,24.59 5.07,24.66 4.97,24.71 4.87,24.75 4.77,24.77 4.66,24.78 4.56,24.76 4.46,24.74 4.36,24.69 4.27,24.63 4.20,24.55 4.13,24.48 4.09,24.38 4.05,24.28 4.04,24.17 4.03,24.07 4.06,23.97 4.08,23.86 4.14,23.77 4.20,23.68 4.28,23.62 4.37,23.55 4.47,23.52 4.57,23.48 4.67,23.48 4.78,23.47 4.88,23.51 4.98,23.54 5.07,23.60 5.15,23.66 5.21,23.75 5.28,23.84 5.31,23.94 5.34,24.04 5.33,24.15 5.33,24.25 5.29,24.35 5.26,24.45 5.19,24.53 5.12,24.62 5.03,24.67 4.94,24.73 4.94,24.73 4.94,24.73 2.58,25.58 0.22,26.42 -1.69,26.56 -3.62,26.69 -4.86,25.69 -6.11,24.68 -6.77,23.28 -7.43,21.88 -7.90,20.75 -8.37,19.63 -8.84,19.28 -9.31,18.93 -9.66,19.34 -10.01,19.75 -10.46,20.61 -10.91,21.48 -11.08,22.58 -11.25,23.69 -11.34,23.79 -11.44,23.89 -11.56,23.97 -11.68,24.05 -11.81,24.09 -11.94,24.14 -12.08,24.15 -12.22,24.17 -12.36,24.15 -12.50,24.13 -12.63,24.07 -12.76,24.02 -12.88,23.94 -12.99,23.85 -13.08,23.75 -13.18,23.64 -13.24,23.51 -13.30,23.39 -13.33,23.25 -13.36,23.11 -13.36,22.97 -13.35,22.83 -13.32,22.69 -13.28,22.55 -13.21,22.43 -13.14,22.31 -12.64,21.96 -12.13,21.61 -11.05,20.13 -9.97,18.64 -8.46,16.07 -6.95,13.51 -5.36,10.15 -3.77,6.79 -2.20,3.27 -0.63,-0.24 -0.59,-0.31 -0.55,-0.38 -0.50,-0.44 -0.44,-0.51 -0.37,-0.55 -0.31,-0.60 -0.23,-0.63 -0.15,-0.66 -0.07,-0.66 0.00,-0.67 0.08,-0.66 0.16,-0.65 0.24,-0.62 0.31,-0.59 0.38,-0.55 0.45,-0.50 0.50,-0.44 0.56,-0.38 0.59,-0.30 0.63,-0.23 0.65,-0.15 0.67,-0.07 0.67,0.00 0.67,0.08 0.65,0.16 0.63,0.24 0.63,0.24 L 0.63,0.24 Z"></path></g><g transform="translate(256.31508794344967 79.96970636361726) rotate(0 7.198562283501246 5.296772929892313)" stroke="none"><path fill="#1e1e1e" d="M 0.27,-0.59 Q 0.27,-0.59 1.16,-0.36 2.05,-0.14 3.45,0.75 4.86,1.65 6.26,2.88 7.66,4.10 9.04,5.45 10.43,6.80 12.40,7.91 14.38,9.02 14.48,9.03 14.59,9.05 14.68,9.09 14.78,9.14 14.85,9.22 14.93,9.29 14.97,9.39 15.02,9.48 15.03,9.59 15.05,9.69 15.03,9.80 15.01,9.90 14.96,9.99 14.90,10.09 14.82,10.16 14.75,10.23 14.65,10.27 14.55,10.31 14.44,10.32 14.34,10.33 14.23,10.30 14.13,10.28 14.04,10.22 13.95,10.16 13.89,10.08 13.82,10.00 13.78,9.90 13.75,9.80 13.74,9.69 13.74,9.58 13.77,9.48 13.80,9.38 13.87,9.29 13.93,9.21 14.01,9.15 14.10,9.08 14.20,9.05 14.30,9.02 14.41,9.03 14.52,9.03 14.62,9.07 14.72,9.10 14.80,9.17 14.88,9.24 14.94,9.32 15.00,9.41 15.02,9.52 15.05,9.62 15.04,9.73 15.03,9.83 14.99,9.93 14.94,10.03 14.87,10.11 14.80,10.19 14.71,10.24 14.62,10.29 14.51,10.31 14.41,10.33 14.41,10.33 14.41,10.33 11.68,9.34 8.94,8.34 7.58,7.03 6.22,5.72 4.93,4.57 3.65,3.41 2.44,2.53 1.23,1.64 0.48,1.12 -0.27,0.59 -0.34,0.55 -0.40,0.51 -0.46,0.45 -0.51,0.40 -0.55,0.33 -0.60,0.26 -0.62,0.19 -0.64,0.11 -0.65,0.03 -0.65,-0.04 -0.64,-0.12 -0.62,-0.19 -0.59,-0.27 -0.56,-0.34 -0.51,-0.40 -0.46,-0.46 -0.39,-0.51 -0.33,-0.56 -0.26,-0.59 -0.19,-0.62 -0.11,-0.64 -0.03,-0.65 0.04,-0.65 0.12,-0.64 0.19,-0.62 0.27,-0.59 0.27,-0.59 L 0.27,-0.59 Z"></path></g><g transform="translate(268.3018524658451 76.89627193550336) rotate(0 -5.30935127928484 8.79525166254993)" stroke="none"><path fill="#1e1e1e" d="M 0.51,0.40 Q 0.51,0.40 -0.80,2.30 -2.12,4.21 -4.16,7.30 -6.21,10.39 -7.23,12.40 -8.26,14.41 -8.72,16.02 -9.18,17.62 -9.20,17.73 -9.22,17.83 -9.28,17.92 -9.33,18.01 -9.42,18.08 -9.50,18.15 -9.60,18.19 -9.69,18.23 -9.80,18.23 -9.91,18.24 -10.01,18.21 -10.11,18.18 -10.20,18.12 -10.29,18.06 -10.35,17.97 -10.41,17.89 -10.45,17.79 -10.48,17.69 -10.48,17.58 -10.48,17.48 -10.44,17.37 -10.41,17.27 -10.35,17.19 -10.28,17.11 -10.19,17.05 -10.10,16.99 -10.00,16.96 -9.90,16.93 -9.79,16.94 -9.69,16.95 -9.59,16.98 -9.49,17.02 -9.41,17.09 -9.33,17.16 -9.27,17.25 -9.22,17.35 -9.20,17.45 -9.18,17.55 -9.19,17.66 -9.20,17.76 -9.25,17.86 -9.29,17.96 -9.36,18.03 -9.44,18.11 -9.53,18.16 -9.63,18.21 -9.73,18.23 -9.84,18.24 -9.94,18.22 -10.05,18.21 -10.14,18.16 -10.23,18.11 -10.31,18.03 -10.38,17.95 -10.42,17.85 -10.47,17.76 -10.48,17.65 -10.49,17.55 -10.49,17.55 -10.49,17.55 -10.20,15.57 -9.91,13.59 -8.86,11.45 -7.82,9.32 -5.69,6.20 -3.57,3.08 -2.04,1.33 -0.51,-0.40 -0.46,-0.46 -0.40,-0.51 -0.33,-0.55 -0.27,-0.59 -0.19,-0.62 -0.11,-0.64 -0.04,-0.65 0.03,-0.65 0.11,-0.64 0.19,-0.62 0.26,-0.59 0.33,-0.56 0.40,-0.51 0.46,-0.46 0.51,-0.40 0.56,-0.34 0.59,-0.26 0.62,-0.19 0.64,-0.11 0.65,-0.04 0.65,0.03 0.64,0.11 0.62,0.19 0.59,0.26 0.55,0.33 0.51,0.40 0.51,0.40 L 0.51,0.40 Z"></path></g><g transform="translate(296.7704255237821 112.07730785469533) rotate(0 5.700224035449935 0.5231393318593405)" stroke="none"><path fill="#1e1e1e" d="M 0.18,0.62 Q 0.18,0.62 -1.17,1.34 -2.54,2.05 -2.87,2.31 -3.20,2.57 -3.35,2.59 -3.50,2.62 -3.65,2.61 -3.81,2.60 -3.95,2.55 -4.10,2.50 -4.23,2.42 -4.36,2.34 -4.47,2.23 -4.58,2.12 -4.66,1.98 -4.73,1.85 -4.78,1.70 -4.82,1.55 -4.83,1.40 -4.84,1.24 -4.81,1.09 -4.78,0.94 -4.71,0.80 -4.65,0.66 -4.55,0.54 -4.45,0.42 -4.33,0.33 -4.21,0.23 -4.06,0.17 -3.92,0.11 -2.25,0.33 -0.59,0.54 1.88,0.58 4.35,0.61 7.15,0.36 9.95,0.11 13.08,-0.80 16.22,-1.71 16.32,-1.74 16.43,-1.76 16.53,-1.75 16.64,-1.74 16.73,-1.70 16.83,-1.66 16.91,-1.59 16.99,-1.52 17.04,-1.42 17.09,-1.33 17.11,-1.23 17.13,-1.12 17.12,-1.02 17.10,-0.91 17.06,-0.82 17.01,-0.72 16.93,-0.65 16.86,-0.57 16.76,-0.53 16.67,-0.48 16.56,-0.46 16.46,-0.45 16.35,-0.47 16.25,-0.49 16.16,-0.54 16.06,-0.60 15.99,-0.68 15.92,-0.75 15.88,-0.85 15.84,-0.95 15.83,-1.06 15.82,-1.16 15.85,-1.26 15.87,-1.37 15.93,-1.46 15.99,-1.55 16.07,-1.61 16.16,-1.68 16.25,-1.72 16.35,-1.75 16.46,-1.75 16.57,-1.76 16.67,-1.73 16.77,-1.69 16.86,-1.63 16.94,-1.57 17.00,-1.48 17.07,-1.40 17.10,-1.30 17.13,-1.19 17.12,-1.09 17.12,-0.98 17.08,-0.88 17.05,-0.78 16.98,-0.70 16.91,-0.62 16.82,-0.56 16.73,-0.50 16.73,-0.50 16.73,-0.50 13.47,0.81 10.21,2.14 7.27,2.62 4.33,3.10 1.65,3.09 -1.01,3.08 -2.10,2.82 -3.20,2.57 -3.35,2.59 -3.50,2.62 -3.65,2.61 -3.81,2.60 -3.95,2.55 -4.10,2.50 -4.23,2.42 -4.36,2.34 -4.47,2.23 -4.58,2.12 -4.66,1.98 -4.73,1.85 -4.78,1.70 -4.82,1.55 -4.83,1.40 -4.84,1.24 -4.81,1.09 -4.78,0.94 -4.71,0.80 -4.65,0.66 -4.55,0.54 -4.45,0.42 -4.33,0.33 -4.21,0.23 -4.06,0.17 -3.92,0.11 -3.61,-0.10 -3.30,-0.32 -1.74,-0.47 -0.18,-0.62 -0.10,-0.64 -0.03,-0.65 0.04,-0.65 0.12,-0.64 0.20,-0.61 0.27,-0.59 0.34,-0.55 0.41,-0.51 0.46,-0.45 0.52,-0.39 0.56,-0.32 0.60,-0.26 0.62,-0.18 0.64,-0.10 0.65,-0.03 0.65,0.04 0.63,0.12 0.62,0.20 0.59,0.27 0.55,0.34 0.50,0.40 0.45,0.47 0.39,0.51 0.33,0.56 0.25,0.59 0.18,0.62 0.18,0.62 L 0.18,0.62 Z"></path></g><g transform="translate(308.17087359468184 101.35295886882574) rotate(0 -2.508089209520449 10.005004964882744)" stroke="none"><path fill="#1e1e1e" d="M 0.66,0.22 Q 0.66,0.22 -0.31,3.56 -1.28,6.90 -2.08,9.54 -2.89,12.17 -3.11,14.05 -3.34,15.93 -2.89,17.86 -2.44,19.78 -2.42,19.89 -2.40,19.99 -2.42,20.10 -2.43,20.20 -2.48,20.30 -2.53,20.39 -2.60,20.47 -2.68,20.54 -2.77,20.59 -2.87,20.63 -2.97,20.65 -3.08,20.66 -3.18,20.64 -3.29,20.62 -3.38,20.57 -3.47,20.51 -3.54,20.43 -3.61,20.35 -3.65,20.26 -3.70,20.16 -3.70,20.05 -3.71,19.95 -3.68,19.84 -3.66,19.74 -3.60,19.65 -3.54,19.56 -3.46,19.50 -3.38,19.43 -3.28,19.40 -3.18,19.36 -3.07,19.36 -2.96,19.36 -2.86,19.39 -2.76,19.42 -2.67,19.48 -2.59,19.54 -2.53,19.63 -2.47,19.72 -2.44,19.82 -2.41,19.92 -2.41,20.03 -2.41,20.13 -2.45,20.23 -2.49,20.33 -2.55,20.41 -2.62,20.50 -2.71,20.55 -2.80,20.61 -2.91,20.64 -3.01,20.66 -3.11,20.65 -3.22,20.64 -3.32,20.60 -3.41,20.56 -3.49,20.48 -3.57,20.41 -3.62,20.32 -3.67,20.23 -3.67,20.23 -3.67,20.23 -4.31,18.03 -4.94,15.83 -4.86,13.72 -4.78,11.61 -3.99,8.93 -3.20,6.25 -1.93,3.01 -0.66,-0.22 -0.62,-0.30 -0.59,-0.37 -0.53,-0.44 -0.48,-0.50 -0.41,-0.55 -0.34,-0.60 -0.26,-0.64 -0.19,-0.67 -0.10,-0.68 -0.02,-0.70 0.06,-0.69 0.14,-0.68 0.22,-0.65 0.30,-0.63 0.37,-0.58 0.44,-0.54 0.50,-0.47 0.56,-0.41 0.60,-0.34 0.64,-0.27 0.67,-0.18 0.69,-0.10 0.69,-0.02 0.69,0.06 0.68,0.14 0.66,0.22 0.66,0.22 L 0.66,0.22 Z"></path></g><g transform="translate(335.46684301861984 119.27044074014583) rotate(0 7.589449674162438 -5.591058011839351)" stroke="none"><path fill="#1e1e1e" d="M -0.47,-0.49 Q -0.47,-0.49 1.11,-2.21 2.70,-3.93 4.35,-5.98 6.00,-8.03 7.08,-9.92 8.16,-11.82 8.51,-12.61 8.85,-13.41 7.19,-13.09 5.53,-12.77 3.94,-11.23 2.35,-9.69 1.41,-7.32 0.47,-4.95 0.89,-2.85 1.30,-0.75 3.16,0.35 5.01,1.46 7.23,1.45 9.46,1.45 11.55,0.56 13.64,-0.31 15.47,-1.48 17.30,-2.64 17.40,-2.68 17.49,-2.73 17.60,-2.73 17.70,-2.74 17.81,-2.72 17.91,-2.69 18.00,-2.63 18.09,-2.58 18.16,-2.49 18.22,-2.41 18.26,-2.31 18.29,-2.21 18.30,-2.10 18.30,-2.00 18.27,-1.90 18.24,-1.79 18.17,-1.71 18.11,-1.62 18.03,-1.56 17.94,-1.50 17.84,-1.47 17.74,-1.44 17.63,-1.44 17.52,-1.44 17.42,-1.48 17.32,-1.52 17.24,-1.58 17.16,-1.65 17.10,-1.74 17.05,-1.83 17.02,-1.93 16.99,-2.04 17.00,-2.14 17.01,-2.25 17.05,-2.35 17.10,-2.44 17.17,-2.52 17.24,-2.60 17.33,-2.65 17.42,-2.70 17.53,-2.72 17.63,-2.74 17.74,-2.73 17.84,-2.71 17.94,-2.67 18.03,-2.62 18.11,-2.54 18.18,-2.47 18.23,-2.37 18.28,-2.28 18.29,-2.17 18.31,-2.07 18.29,-1.96 18.27,-1.86 18.21,-1.77 18.16,-1.67 18.08,-1.60 18.00,-1.53 18.00,-1.53 18.00,-1.53 16.12,-0.34 14.23,0.85 11.91,2.18 9.59,3.52 6.72,3.60 3.86,3.69 1.40,2.01 -1.04,0.32 -1.59,-2.72 -2.14,-5.77 -0.86,-8.72 0.41,-11.66 2.54,-13.52 4.67,-15.37 6.71,-15.75 8.74,-16.12 9.75,-15.19 10.76,-14.27 10.45,-12.47 10.14,-10.67 8.89,-8.67 7.64,-6.67 5.84,-4.60 4.04,-2.53 2.25,-1.01 0.47,0.49 0.40,0.54 0.34,0.59 0.26,0.62 0.19,0.65 0.10,0.67 0.02,0.68 -0.05,0.67 -0.13,0.67 -0.21,0.64 -0.29,0.61 -0.36,0.57 -0.43,0.53 -0.49,0.47 -0.54,0.41 -0.59,0.34 -0.63,0.26 -0.65,0.18 -0.67,0.10 -0.68,0.02 -0.68,-0.05 -0.66,-0.13 -0.65,-0.21 -0.61,-0.29 -0.57,-0.36 -0.52,-0.43 -0.47,-0.49 -0.47,-0.49 L -0.47,-0.49 Z"></path></g><g transform="translate(359.700953900854 84.74334727889823) rotate(0 -0.48857265208619083 6.277650030568651)" stroke="none"><path fill="#1e1e1e" d="M 0.68,0.18 Q 0.68,0.18 0.57,1.28 0.47,2.38 0.23,3.79 0.00,5.21 0.01,6.84 0.03,8.47 0.50,10.12 0.98,11.76 0.97,11.84 0.96,11.92 0.93,11.99 0.90,12.07 0.86,12.13 0.81,12.20 0.75,12.25 0.70,12.30 0.63,12.34 0.56,12.38 0.48,12.40 0.40,12.42 0.32,12.42 0.24,12.42 0.17,12.40 0.09,12.38 0.02,12.34 -0.04,12.31 -0.10,12.25 -0.16,12.20 -0.20,12.14 -0.25,12.07 -0.28,12.00 -0.31,11.92 -0.32,11.85 -0.33,11.77 -0.27,11.58 -0.21,11.40 -0.14,11.32 -0.07,11.25 0.01,11.19 0.11,11.14 0.21,11.13 0.32,11.11 0.42,11.13 0.53,11.14 0.62,11.19 0.72,11.24 0.79,11.32 0.86,11.39 0.91,11.49 0.95,11.59 0.96,11.69 0.98,11.80 0.95,11.90 0.93,12.01 0.88,12.10 0.82,12.19 0.74,12.26 0.66,12.33 0.56,12.37 0.47,12.41 0.36,12.41 0.25,12.42 0.15,12.39 0.05,12.36 -0.03,12.30 -0.12,12.24 -0.18,12.16 -0.25,12.08 -0.28,11.98 -0.32,11.88 -0.32,11.77 -0.32,11.66 -0.28,11.56 -0.25,11.46 -0.19,11.38 -0.12,11.29 -0.04,11.23 0.04,11.17 0.14,11.14 0.25,11.11 0.35,11.12 0.46,11.12 0.56,11.16 0.66,11.20 0.74,11.27 0.82,11.34 0.87,11.43 0.93,11.52 0.95,11.62 0.98,11.73 0.97,11.83 0.95,11.94 0.97,11.85 0.98,11.76 0.97,11.84 0.96,11.92 0.93,11.99 0.90,12.07 0.86,12.13 0.81,12.20 0.75,12.25 0.70,12.30 0.63,12.34 0.56,12.38 0.48,12.40 0.40,12.42 0.32,12.42 0.24,12.42 0.17,12.40 0.09,12.38 0.02,12.34 -0.04,12.31 -0.10,12.26 -0.16,12.20 -0.20,12.14 -0.25,12.07 -0.28,12.00 -0.31,11.92 -0.32,11.85 -0.33,11.77 -1.23,10.14 -2.13,8.50 -2.13,6.67 -2.12,4.85 -1.86,3.34 -1.59,1.82 -1.14,0.82 -0.68,-0.18 -0.65,-0.26 -0.62,-0.34 -0.57,-0.41 -0.52,-0.48 -0.45,-0.53 -0.39,-0.59 -0.31,-0.62 -0.23,-0.66 -0.15,-0.68 -0.07,-0.70 0.01,-0.70 0.09,-0.70 0.18,-0.67 0.26,-0.65 0.33,-0.61 0.41,-0.57 0.47,-0.51 0.53,-0.45 0.58,-0.38 0.63,-0.31 0.66,-0.23 0.69,-0.15 0.69,-0.07 0.70,0.01 0.69,0.09 0.68,0.18 0.68,0.18 L 0.68,0.18 Z"></path></g><g transform="translate(342.7631637360267 88.86304573623482) rotate(0 5.179060360563085 0.6866212877214934)" stroke="none"><path fill="#1e1e1e" d="M 0.17,-0.63 Q 0.17,-0.63 1.68,-0.45 3.20,-0.27 4.54,-0.09 5.89,0.08 8.04,-0.21 10.19,-0.50 10.30,-0.51 10.41,-0.52 10.51,-0.49 10.61,-0.47 10.70,-0.41 10.79,-0.35 10.86,-0.27 10.92,-0.19 10.96,-0.09 11.00,0.00 11.00,0.11 11.00,0.21 10.97,0.31 10.94,0.42 10.88,0.50 10.82,0.59 10.73,0.65 10.65,0.71 10.54,0.74 10.44,0.78 10.34,0.77 10.23,0.77 10.13,0.73 10.03,0.70 9.95,0.63 9.87,0.57 9.81,0.48 9.75,0.39 9.72,0.28 9.70,0.18 9.71,0.07 9.72,-0.02 9.76,-0.12 9.80,-0.22 9.87,-0.30 9.94,-0.38 10.03,-0.43 10.13,-0.48 10.23,-0.50 10.33,-0.52 10.44,-0.51 10.54,-0.49 10.64,-0.45 10.74,-0.40 10.81,-0.32 10.89,-0.25 10.93,-0.15 10.98,-0.06 11.00,0.04 11.01,0.14 10.99,0.25 10.97,0.35 10.92,0.44 10.87,0.54 10.79,0.61 10.71,0.68 10.61,0.72 10.51,0.76 10.51,0.76 10.51,0.76 8.12,1.39 5.73,2.01 4.18,1.93 2.63,1.85 1.23,1.24 -0.17,0.63 -0.24,0.60 -0.31,0.57 -0.38,0.52 -0.44,0.48 -0.49,0.42 -0.54,0.36 -0.58,0.28 -0.61,0.21 -0.63,0.14 -0.65,0.06 -0.65,-0.01 -0.64,-0.09 -0.62,-0.17 -0.60,-0.24 -0.57,-0.31 -0.53,-0.38 -0.47,-0.44 -0.42,-0.50 -0.35,-0.54 -0.29,-0.58 -0.21,-0.61 -0.14,-0.64 -0.06,-0.64 0.01,-0.65 0.09,-0.64 0.17,-0.63 0.17,-0.63 L 0.17,-0.63 Z"></path></g><g transform="translate(361.5901795395666 71.53410475981661) rotate(0 0.5863164514956338 0.06539424579443676)" stroke="none"><path fill="#1e1e1e" d="M 0.11,-0.66 Q 0.11,-0.66 0.69,-0.55 1.28,-0.45 1.38,-0.41 1.48,-0.38 1.56,-0.31 1.65,-0.25 1.71,-0.16 1.76,-0.07 1.79,0.02 1.82,0.12 1.81,0.23 1.81,0.33 1.77,0.43 1.73,0.53 1.66,0.61 1.59,0.69 1.50,0.75 1.41,0.80 1.30,0.82 1.20,0.85 1.10,0.84 0.99,0.82 0.89,0.78 0.80,0.73 0.72,0.66 0.64,0.59 0.59,0.49 0.54,0.40 0.53,0.29 0.51,0.19 0.53,0.08 0.55,-0.01 0.60,-0.10 0.65,-0.20 0.72,-0.27 0.80,-0.34 0.90,-0.39 0.99,-0.43 1.10,-0.44 1.21,-0.45 1.31,-0.43 1.41,-0.41 1.50,-0.35 1.59,-0.30 1.66,-0.22 1.73,-0.14 1.77,-0.04 1.81,0.05 1.81,0.16 1.82,0.26 1.79,0.37 1.76,0.47 1.70,0.56 1.64,0.64 1.56,0.71 1.47,0.77 1.37,0.81 1.27,0.84 1.17,0.84 1.06,0.84 1.06,0.84 1.06,0.84 0.47,0.75 -0.11,0.66 -0.18,0.63 -0.26,0.61 -0.33,0.57 -0.40,0.53 -0.46,0.47 -0.52,0.42 -0.56,0.35 -0.60,0.28 -0.63,0.20 -0.65,0.13 -0.66,0.05 -0.67,-0.03 -0.65,-0.11 -0.64,-0.18 -0.61,-0.26 -0.58,-0.33 -0.53,-0.40 -0.48,-0.46 -0.41,-0.51 -0.35,-0.56 -0.28,-0.60 -0.20,-0.63 -0.13,-0.65 -0.05,-0.66 0.03,-0.66 0.11,-0.66 0.11,-0.66 L 0.11,-0.66 Z"></path></g><g transform="translate(383.7396357222537 65.4526228321352) rotate(0 -3.843574785041824 12.62070162417973)" stroke="none"><path fill="#1e1e1e" d="M 0.67,-0.01 Q 0.67,-0.01 0.86,0.96 1.05,1.94 0.69,4.01 0.33,6.08 -0.58,8.69 -1.50,11.30 -3.06,14.24 -4.63,17.19 -6.31,19.51 -7.99,21.84 -9.31,23.13 -10.63,24.42 -11.00,24.42 -11.38,24.41 -11.49,24.50 -11.60,24.58 -11.72,24.64 -11.85,24.70 -11.99,24.72 -12.13,24.75 -12.27,24.74 -12.40,24.73 -12.54,24.69 -12.67,24.65 -12.79,24.57 -12.91,24.50 -13.01,24.40 -13.11,24.30 -13.18,24.18 -13.25,24.06 -13.29,23.93 -13.33,23.80 -13.34,23.66 -13.35,23.52 -13.32,23.38 -13.30,23.24 -13.24,23.12 -13.18,22.99 -13.10,22.88 -13.01,22.77 -12.60,21.88 -12.19,20.99 -10.99,19.56 -9.79,18.13 -8.23,17.02 -6.66,15.91 -5.11,15.64 -3.55,15.36 -2.34,15.93 -1.13,16.49 -0.22,17.58 0.68,18.68 1.26,19.35 1.85,20.03 3.59,20.05 5.33,20.07 5.43,20.08 5.54,20.08 5.64,20.12 5.74,20.16 5.82,20.23 5.90,20.30 5.95,20.39 6.01,20.48 6.03,20.58 6.06,20.68 6.05,20.79 6.04,20.90 5.99,20.99 5.95,21.09 5.88,21.17 5.80,21.24 5.71,21.29 5.62,21.35 5.51,21.36 5.41,21.38 5.30,21.36 5.20,21.35 5.10,21.30 5.01,21.25 4.93,21.17 4.86,21.10 4.82,21.00 4.77,20.90 4.76,20.80 4.75,20.69 4.77,20.59 4.79,20.49 4.84,20.39 4.90,20.30 4.98,20.23 5.06,20.16 5.16,20.12 5.26,20.08 5.36,20.08 5.47,20.07 5.57,20.10 5.67,20.13 5.76,20.19 5.85,20.24 5.92,20.33 5.98,20.41 6.01,20.51 6.05,20.61 6.05,20.72 6.05,20.83 6.02,20.93 5.98,21.03 5.92,21.11 5.86,21.20 5.77,21.26 5.68,21.32 5.58,21.35 5.48,21.38 5.48,21.38 5.48,21.38 3.11,21.49 0.75,21.61 -0.15,20.82 -1.06,20.03 -1.65,19.18 -2.24,18.34 -2.87,17.87 -3.51,17.40 -4.53,17.54 -5.55,17.67 -6.87,18.58 -8.20,19.50 -9.21,20.71 -10.23,21.92 -10.80,23.16 -11.38,24.41 -11.49,24.50 -11.60,24.58 -11.72,24.64 -11.85,24.70 -11.99,24.72 -12.13,24.75 -12.27,24.74 -12.40,24.73 -12.54,24.69 -12.67,24.65 -12.79,24.57 -12.91,24.50 -13.01,24.40 -13.11,24.30 -13.18,24.18 -13.25,24.06 -13.29,23.93 -13.33,23.80 -13.34,23.66 -13.35,23.52 -13.32,23.38 -13.30,23.24 -13.24,23.12 -13.18,22.99 -13.10,22.88 -13.01,22.77 -12.52,22.67 -12.03,22.56 -10.98,21.49 -9.92,20.41 -8.30,18.24 -6.68,16.07 -5.14,13.30 -3.61,10.53 -2.71,8.09 -1.80,5.65 -1.39,3.81 -0.97,1.96 -0.82,0.99 -0.67,0.01 -0.67,-0.06 -0.66,-0.14 -0.63,-0.22 -0.60,-0.30 -0.56,-0.37 -0.51,-0.44 -0.45,-0.49 -0.39,-0.55 -0.32,-0.59 -0.25,-0.63 -0.17,-0.65 -0.09,-0.67 -0.01,-0.67 0.06,-0.67 0.14,-0.65 0.22,-0.63 0.30,-0.60 0.37,-0.56 0.43,-0.51 0.49,-0.45 0.54,-0.39 0.59,-0.32 0.62,-0.25 0.65,-0.17 0.66,-0.09 0.67,-0.01 0.67,-0.01 L 0.67,-0.01 Z"></path></g><g transform="translate(405.6285100674974 83.43549163200169) rotate(0 3.745874889120671 3.563880295700102)" stroke="none"><path fill="#1e1e1e" d="M 0.55,-0.35 Q 0.55,-0.35 1.17,0.43 1.80,1.22 3.33,2.68 4.87,4.14 6.38,5.37 7.89,6.60 7.96,6.68 8.03,6.76 8.08,6.86 8.12,6.95 8.13,7.06 8.14,7.16 8.12,7.27 8.09,7.37 8.04,7.46 7.98,7.55 7.90,7.62 7.82,7.69 7.72,7.73 7.62,7.77 7.52,7.77 7.41,7.77 7.31,7.75 7.21,7.72 7.12,7.66 7.03,7.60 6.97,7.51 6.90,7.43 6.87,7.32 6.84,7.22 6.84,7.12 6.84,7.01 6.87,6.91 6.91,6.81 6.97,6.73 7.04,6.64 7.13,6.58 7.22,6.52 7.32,6.50 7.42,6.47 7.53,6.48 7.63,6.48 7.73,6.52 7.83,6.56 7.91,6.63 7.99,6.70 8.04,6.79 8.10,6.88 8.12,6.99 8.14,7.09 8.13,7.20 8.12,7.30 8.07,7.40 8.03,7.50 7.95,7.57 7.88,7.65 7.79,7.70 7.69,7.75 7.59,7.76 7.48,7.78 7.38,7.76 7.27,7.74 7.18,7.69 7.08,7.64 7.09,7.64 7.09,7.64 5.46,6.45 3.84,5.26 2.10,3.71 0.37,2.15 -0.09,1.25 -0.55,0.35 -0.58,0.28 -0.62,0.21 -0.63,0.13 -0.65,0.05 -0.65,-0.02 -0.64,-0.10 -0.62,-0.17 -0.60,-0.25 -0.56,-0.32 -0.52,-0.39 -0.47,-0.44 -0.41,-0.50 -0.35,-0.54 -0.28,-0.59 -0.21,-0.61 -0.13,-0.64 -0.05,-0.64 0.02,-0.65 0.10,-0.64 0.17,-0.63 0.25,-0.60 0.32,-0.57 0.38,-0.52 0.45,-0.47 0.50,-0.41 0.55,-0.35 0.55,-0.35 L 0.55,-0.35 Z"></path></g><g transform="translate(411.296186983635 79.05421619148734) rotate(0 -5.374504055893681 6.441131986430719)" stroke="none"><path fill="#1e1e1e" d="M 0.43,0.48 Q 0.43,0.48 -0.36,1.36 -1.16,2.24 -3.56,5.04 -5.97,7.85 -8.09,10.56 -10.21,13.26 -10.28,13.33 -10.36,13.41 -10.45,13.46 -10.55,13.50 -10.65,13.52 -10.76,13.53 -10.86,13.51 -10.97,13.49 -11.06,13.44 -11.15,13.39 -11.23,13.31 -11.30,13.23 -11.34,13.14 -11.38,13.04 -11.39,12.93 -11.40,12.83 -11.37,12.72 -11.35,12.62 -11.29,12.53 -11.23,12.44 -11.15,12.37 -11.07,12.31 -10.97,12.27 -10.87,12.23 -10.76,12.23 -10.66,12.23 -10.56,12.26 -10.45,12.29 -10.37,12.35 -10.28,12.41 -10.22,12.50 -10.16,12.58 -10.13,12.69 -10.09,12.79 -10.10,12.89 -10.10,13.00 -10.14,13.10 -10.17,13.20 -10.24,13.28 -10.30,13.36 -10.39,13.42 -10.48,13.48 -10.59,13.51 -10.69,13.53 -10.79,13.52 -10.90,13.51 -11.00,13.47 -11.10,13.43 -11.18,13.36 -11.25,13.29 -11.31,13.20 -11.36,13.11 -11.38,13.00 -11.40,12.90 -11.39,12.79 -11.37,12.69 -11.33,12.59 -11.28,12.50 -11.28,12.50 -11.28,12.50 -9.36,9.53 -7.43,6.57 -4.89,3.74 -2.35,0.91 -1.39,0.21 -0.43,-0.48 -0.37,-0.53 -0.30,-0.57 -0.23,-0.60 -0.16,-0.63 -0.08,-0.64 -0.00,-0.65 0.07,-0.64 0.15,-0.63 0.22,-0.61 0.30,-0.58 0.36,-0.53 0.43,-0.49 0.48,-0.43 0.53,-0.37 0.57,-0.30 0.61,-0.23 0.63,-0.15 0.65,-0.08 0.65,-0.00 0.65,0.07 0.63,0.15 0.61,0.22 0.57,0.29 0.54,0.36 0.49,0.42 0.43,0.48 0.43,0.48 L 0.43,0.48 Z"></path></g><g transform="translate(188.62893371578815 158.11340807886523) rotate(0 92.57171970350413 -7.095052492630913)" stroke="none"><path fill="#1e1e1e" d="M -0.21,-0.62 Q -0.21,-0.62 1.50,-1.42 3.22,-2.22 6.98,-2.59 10.74,-2.96 16.96,-3.03 23.18,-3.10 32.11,-3.39 41.05,-3.69 50.83,-4.51 60.62,-5.32 71.54,-6.35 82.47,-7.38 93.60,-8.11 104.72,-8.84 115.75,-9.33 126.78,-9.83 136.16,-10.45 145.55,-11.07 153.70,-11.91 161.85,-12.75 167.69,-13.45 173.53,-14.16 176.85,-14.48 180.18,-14.80 181.29,-14.74 182.41,-14.67 182.53,-14.67 182.66,-14.67 182.79,-14.64 182.91,-14.61 183.02,-14.55 183.14,-14.49 183.23,-14.40 183.33,-14.31 183.40,-14.21 183.47,-14.10 183.52,-13.98 183.56,-13.86 183.57,-13.73 183.59,-13.60 183.57,-13.48 183.56,-13.35 183.51,-13.23 183.46,-13.11 183.39,-13.01 183.31,-12.90 183.22,-12.82 183.12,-12.73 183.01,-12.67 182.89,-12.62 182.77,-12.59 182.64,-12.56 181.59,-12.19 180.54,-11.82 178.98,-11.33 177.42,-10.84 175.69,-10.24 173.95,-9.64 173.85,-9.62 173.74,-9.60 173.64,-9.62 173.53,-9.64 173.44,-9.69 173.35,-9.74 173.27,-9.81 173.20,-9.89 173.15,-9.98 173.11,-10.08 173.09,-10.19 173.08,-10.29 173.10,-10.40 173.13,-10.50 173.18,-10.59 173.23,-10.68 173.31,-10.75 173.39,-10.82 173.49,-10.86 173.59,-10.90 173.70,-10.91 173.80,-10.91 173.91,-10.89 174.01,-10.86 174.10,-10.80 174.19,-10.74 174.25,-10.66 174.32,-10.57 174.35,-10.47 174.39,-10.37 174.39,-10.27 174.39,-10.16 174.35,-10.06 174.32,-9.96 174.26,-9.87 174.19,-9.79 174.11,-9.73 174.02,-9.67 173.92,-9.64 173.81,-9.61 173.71,-9.61 173.60,-9.62 173.50,-9.66 173.40,-9.70 173.32,-9.76 173.24,-9.83 173.19,-9.92 173.13,-10.01 173.11,-10.12 173.08,-10.22 173.09,-10.33 173.10,-10.43 173.15,-10.53 173.19,-10.63 173.26,-10.70 173.34,-10.78 173.43,-10.83 173.52,-10.88 173.52,-10.88 173.52,-10.88 175.25,-11.48 176.97,-12.08 178.42,-12.68 179.87,-13.28 181.14,-13.98 182.41,-14.67 182.53,-14.67 182.66,-14.67 182.79,-14.64 182.91,-14.61 183.02,-14.55 183.14,-14.49 183.23,-14.40 183.33,-14.31 183.40,-14.21 183.47,-14.10 183.52,-13.98 183.56,-13.86 183.57,-13.73 183.59,-13.60 183.57,-13.48 183.56,-13.35 183.51,-13.23 183.46,-13.11 183.39,-13.01 183.31,-12.90 183.22,-12.82 183.12,-12.73 183.01,-12.67 182.89,-12.62 182.77,-12.59 182.64,-12.56 181.54,-12.52 180.44,-12.47 177.14,-12.06 173.85,-11.64 167.98,-10.88 162.12,-10.11 153.92,-9.25 145.73,-8.39 136.31,-7.77 126.90,-7.15 115.90,-6.66 104.90,-6.17 93.81,-5.46 82.72,-4.76 71.77,-3.75 60.83,-2.73 50.98,-1.93 41.13,-1.12 32.16,-0.87 23.19,-0.63 17.06,-0.66 10.93,-0.69 7.41,-0.43 3.89,-0.18 2.05,0.22 0.21,0.62 0.13,0.63 0.05,0.65 -0.02,0.65 -0.10,0.64 -0.17,0.62 -0.25,0.60 -0.32,0.56 -0.39,0.52 -0.44,0.47 -0.50,0.41 -0.54,0.35 -0.59,0.28 -0.61,0.20 -0.64,0.13 -0.64,0.05 -0.65,-0.02 -0.64,-0.10 -0.63,-0.18 -0.60,-0.25 -0.56,-0.32 -0.52,-0.38 -0.47,-0.45 -0.41,-0.50 -0.35,-0.55 -0.28,-0.58 -0.21,-0.62 -0.21,-0.62 L -0.21,-0.62 Z"></path></g><g transform="translate(304.4576043628579 177.07716861390412) rotate(0 6.058520403310467 0.9809063696685598)" stroke="none"><path fill="#1e1e1e" d="M -0.64,-0.19 Q -0.64,-0.19 -0.14,-2.44 0.35,-4.68 1.45,-6.35 2.55,-8.01 4.35,-9.05 6.14,-10.08 6.97,-9.30 7.80,-8.51 7.47,-6.41 7.13,-4.32 5.65,-1.33 4.17,1.64 2.39,4.48 0.60,7.31 -0.74,9.05 -2.10,10.80 -2.54,11.09 -2.98,11.37 -3.07,11.46 -3.15,11.55 -3.26,11.61 -3.36,11.67 -3.48,11.71 -3.59,11.75 -3.71,11.76 -3.84,11.76 -3.96,11.74 -4.08,11.72 -4.19,11.67 -4.30,11.62 -4.39,11.55 -4.49,11.47 -4.57,11.38 -4.64,11.28 -4.69,11.17 -4.74,11.06 -4.77,10.94 -4.79,10.82 -4.78,10.70 -4.78,10.58 -4.74,10.46 -4.70,10.35 -4.64,10.24 -4.58,10.14 -3.80,9.33 -3.02,8.53 -1.54,7.64 -0.06,6.75 1.43,6.48 2.92,6.21 4.29,6.64 5.65,7.07 6.94,7.74 8.22,8.42 9.51,8.66 10.79,8.91 12.29,8.61 13.80,8.32 15.32,7.77 16.84,7.22 16.95,7.20 17.05,7.19 17.16,7.20 17.26,7.22 17.36,7.26 17.45,7.31 17.52,7.39 17.60,7.46 17.65,7.56 17.69,7.65 17.71,7.76 17.72,7.86 17.70,7.97 17.68,8.07 17.62,8.17 17.57,8.26 17.49,8.33 17.41,8.40 17.31,8.44 17.22,8.48 17.11,8.49 17.00,8.50 16.90,8.47 16.80,8.44 16.71,8.39 16.62,8.33 16.56,8.24 16.49,8.16 16.45,8.06 16.42,7.96 16.42,7.85 16.41,7.75 16.45,7.65 16.48,7.55 16.54,7.46 16.60,7.37 16.69,7.31 16.78,7.25 16.88,7.22 16.98,7.19 17.09,7.19 17.19,7.20 17.29,7.24 17.39,7.27 17.47,7.34 17.56,7.41 17.61,7.50 17.67,7.59 17.69,7.69 17.72,7.79 17.71,7.90 17.70,8.01 17.66,8.10 17.61,8.20 17.54,8.28 17.47,8.36 17.38,8.41 17.28,8.46 17.28,8.46 17.29,8.46 15.71,9.02 14.14,9.59 12.34,10.17 10.55,10.76 8.91,10.52 7.26,10.28 6.08,9.63 4.89,8.98 3.97,8.50 3.04,8.02 1.88,8.10 0.72,8.18 -0.51,8.90 -1.76,9.63 -2.37,10.50 -2.98,11.37 -3.07,11.46 -3.15,11.55 -3.26,11.61 -3.36,11.67 -3.48,11.71 -3.59,11.75 -3.71,11.76 -3.84,11.76 -3.96,11.74 -4.08,11.72 -4.19,11.67 -4.30,11.62 -4.39,11.55 -4.49,11.47 -4.57,11.38 -4.64,11.28 -4.69,11.17 -4.74,11.06 -4.77,10.94 -4.79,10.82 -4.78,10.70 -4.78,10.58 -4.74,10.46 -4.70,10.35 -4.64,10.24 -4.58,10.14 -4.24,9.76 -3.90,9.39 -2.62,7.72 -1.34,6.06 0.42,3.35 2.19,0.63 3.61,-2.08 5.04,-4.81 5.17,-6.64 5.30,-8.47 4.79,-7.64 4.28,-6.81 3.31,-5.42 2.34,-4.03 1.49,-1.92 0.64,0.19 0.60,0.27 0.57,0.34 0.52,0.40 0.47,0.47 0.41,0.52 0.34,0.57 0.27,0.60 0.20,0.64 0.12,0.65 0.04,0.67 -0.03,0.66 -0.11,0.66 -0.19,0.63 -0.27,0.61 -0.34,0.57 -0.41,0.52 -0.47,0.47 -0.52,0.41 -0.56,0.34 -0.61,0.27 -0.63,0.19 -0.66,0.12 -0.66,0.04 -0.67,-0.03 -0.65,-0.11 -0.64,-0.19 -0.64,-0.19 L -0.64,-0.19 Z"></path></g><g transform="translate(416.37754744827697 160.59834551556554) rotate(0 -4.3647530944246 11.574422960460936)" stroke="none"><path fill="#1e1e1e" d="M 0.65,0.09 Q 0.65,0.09 0.79,1.05 0.94,2.01 0.30,4.22 -0.32,6.42 -1.63,9.51 -2.93,12.60 -4.48,15.52 -6.02,18.44 -7.24,20.94 -8.46,23.43 -8.52,23.52 -8.58,23.60 -8.67,23.67 -8.75,23.73 -8.85,23.76 -8.95,23.79 -9.06,23.79 -9.17,23.79 -9.27,23.75 -9.37,23.72 -9.45,23.65 -9.53,23.59 -9.59,23.50 -9.65,23.41 -9.68,23.31 -9.70,23.20 -9.70,23.10 -9.69,22.99 -9.65,22.89 -9.61,22.80 -9.54,22.72 -9.47,22.64 -9.38,22.58 -9.28,22.53 -9.18,22.51 -9.08,22.49 -8.97,22.50 -8.86,22.51 -8.77,22.56 -8.67,22.61 -8.60,22.68 -8.52,22.75 -8.47,22.85 -8.42,22.94 -8.41,23.05 -8.39,23.15 -8.41,23.26 -8.43,23.36 -8.48,23.46 -8.53,23.55 -8.61,23.62 -8.69,23.69 -8.79,23.74 -8.88,23.78 -8.99,23.79 -9.10,23.80 -9.20,23.77 -9.30,23.75 -9.39,23.69 -9.48,23.64 -9.55,23.56 -9.62,23.47 -9.66,23.37 -9.69,23.27 -9.70,23.17 -9.70,23.06 -9.67,22.96 -9.64,22.86 -9.64,22.86 -9.64,22.86 -8.46,20.37 -7.27,17.87 -6.10,14.84 -4.92,11.81 -3.79,8.77 -2.66,5.74 -2.06,3.70 -1.47,1.66 -1.06,0.78 -0.65,-0.09 -0.62,-0.16 -0.60,-0.24 -0.57,-0.31 -0.53,-0.38 -0.47,-0.44 -0.42,-0.50 -0.35,-0.54 -0.29,-0.58 -0.21,-0.61 -0.14,-0.64 -0.06,-0.64 0.01,-0.65 0.09,-0.64 0.17,-0.63 0.24,-0.60 0.31,-0.57 0.38,-0.52 0.44,-0.48 0.49,-0.42 0.54,-0.36 0.58,-0.29 0.61,-0.22 0.63,-0.14 0.65,-0.06 0.65,0.01 0.65,0.09 0.65,0.09 L 0.65,0.09 Z"></path></g><g transform="translate(462.3050743459283 127.31367686917986) rotate(0 -3.778422008432983 9.416493338973055)" stroke="none"><path fill="#1e1e1e" d="M -0.59,-0.28 Q -0.59,-0.28 -0.12,-1.55 0.34,-2.82 0.54,-3.36 0.75,-3.90 0.07,-4.33 -0.60,-4.76 -1.83,-4.69 -3.05,-4.63 -4.56,-3.94 -6.07,-3.24 -7.27,-1.87 -8.48,-0.49 -8.91,1.17 -9.35,2.84 -8.97,4.26 -8.60,5.67 -7.34,6.65 -6.09,7.64 -4.46,8.26 -2.84,8.88 -1.49,9.81 -0.15,10.74 0.35,12.44 0.87,14.14 0.55,16.53 0.23,18.92 -0.25,20.91 -0.74,22.89 -0.76,23.71 -0.77,24.53 -0.81,24.66 -0.86,24.78 -0.93,24.88 -1.01,24.99 -1.10,25.08 -1.20,25.16 -1.32,25.22 -1.43,25.29 -1.56,25.32 -1.68,25.35 -1.81,25.35 -1.94,25.35 -2.07,25.32 -2.20,25.29 -2.31,25.23 -2.43,25.17 -2.52,25.08 -2.62,24.99 -2.69,24.89 -2.77,24.78 -2.81,24.66 -2.86,24.54 -2.88,24.41 -2.89,24.28 -2.88,24.15 -2.86,24.02 -1.63,23.00 -0.39,21.98 0.52,20.90 1.44,19.83 2.41,18.48 3.37,17.14 3.45,17.06 3.52,16.99 3.62,16.94 3.71,16.89 3.82,16.88 3.92,16.86 4.03,16.88 4.13,16.90 4.22,16.96 4.31,17.01 4.39,17.09 4.46,17.17 4.50,17.26 4.54,17.36 4.55,17.47 4.56,17.57 4.53,17.68 4.51,17.78 4.45,17.87 4.39,17.96 4.31,18.02 4.23,18.09 4.13,18.13 4.03,18.16 3.92,18.17 3.82,18.17 3.71,18.14 3.61,18.11 3.53,18.05 3.44,17.98 3.38,17.90 3.32,17.81 3.28,17.71 3.25,17.61 3.26,17.50 3.26,17.40 3.30,17.30 3.33,17.20 3.40,17.11 3.47,17.03 3.55,16.97 3.64,16.92 3.75,16.89 3.85,16.87 3.96,16.87 4.06,16.88 4.16,16.92 4.26,16.97 4.34,17.04 4.42,17.11 4.47,17.20 4.52,17.29 4.54,17.40 4.56,17.50 4.55,17.61 4.53,17.71 4.48,17.81 4.44,17.90 4.44,17.90 4.44,17.90 3.46,19.27 2.48,20.64 1.56,21.90 0.64,23.16 -0.06,23.85 -0.77,24.53 -0.81,24.66 -0.86,24.78 -0.93,24.88 -1.01,24.99 -1.10,25.08 -1.20,25.16 -1.32,25.22 -1.43,25.29 -1.56,25.32 -1.68,25.35 -1.81,25.35 -1.94,25.35 -2.07,25.32 -2.20,25.29 -2.31,25.23 -2.43,25.17 -2.52,25.08 -2.62,24.99 -2.69,24.89 -2.77,24.78 -2.81,24.66 -2.86,24.54 -2.88,24.41 -2.89,24.28 -2.88,24.15 -2.86,24.02 -2.95,23.19 -3.05,22.36 -2.59,20.46 -2.13,18.56 -1.79,16.59 -1.45,14.61 -1.59,13.47 -1.74,12.33 -2.74,11.71 -3.73,11.09 -5.68,10.28 -7.62,9.46 -9.21,7.96 -10.80,6.45 -11.23,4.39 -11.65,2.32 -10.95,0.15 -10.26,-2.00 -8.63,-3.65 -7.01,-5.30 -5.03,-6.06 -3.05,-6.81 -1.28,-6.63 0.49,-6.44 1.41,-5.43 2.33,-4.41 2.15,-3.23 1.98,-2.06 1.28,-0.88 0.59,0.28 0.55,0.35 0.51,0.41 0.45,0.47 0.39,0.52 0.32,0.56 0.25,0.60 0.18,0.63 0.10,0.65 0.02,0.65 -0.05,0.65 -0.13,0.64 -0.20,0.62 -0.28,0.59 -0.35,0.55 -0.41,0.50 -0.47,0.45 -0.52,0.39 -0.57,0.33 -0.60,0.25 -0.63,0.18 -0.64,0.10 -0.66,0.02 -0.65,-0.05 -0.64,-0.13 -0.62,-0.20 -0.59,-0.28 -0.59,-0.28 L -0.59,-0.28 Z"></path></g><g transform="translate(479.9595450534534 137.64566038028283) rotate(0 -1.6286438012691633 6.408431204909476)" stroke="none"><path fill="#1e1e1e" d="M 0.63,0.14 Q 0.63,0.14 0.52,1.14 0.40,2.15 0.17,3.29 -0.04,4.43 -0.70,6.91 -1.35,9.40 -1.54,9.83 -1.72,10.26 -1.76,10.35 -1.79,10.44 -1.85,10.52 -1.91,10.60 -1.98,10.67 -2.05,10.73 -2.14,10.77 -2.23,10.82 -2.32,10.84 -2.42,10.86 -2.52,10.86 -2.62,10.86 -2.71,10.83 -2.80,10.81 -2.89,10.76 -2.98,10.71 -3.05,10.65 -3.12,10.58 -3.17,10.50 -3.23,10.42 -3.26,10.33 -3.29,10.24 -3.30,10.14 -3.31,10.04 -3.30,9.94 -3.29,9.85 -3.21,8.32 -3.13,6.79 -3.11,6.69 -3.09,6.58 -3.04,6.49 -2.99,6.39 -2.91,6.32 -2.84,6.25 -2.74,6.21 -2.64,6.16 -2.54,6.15 -2.43,6.14 -2.33,6.16 -2.22,6.19 -2.13,6.24 -2.04,6.30 -1.97,6.38 -1.91,6.46 -1.87,6.56 -1.83,6.66 -1.82,6.77 -1.82,6.87 -1.85,6.97 -1.88,7.08 -1.94,7.16 -2.00,7.25 -2.08,7.31 -2.17,7.38 -2.27,7.41 -2.37,7.44 -2.48,7.44 -2.58,7.44 -2.68,7.41 -2.78,7.37 -2.87,7.31 -2.95,7.24 -3.01,7.16 -3.07,7.07 -3.10,6.96 -3.12,6.86 -3.12,6.76 -3.11,6.65 -3.07,6.55 -3.03,6.45 -2.96,6.37 -2.89,6.29 -2.80,6.24 -2.71,6.18 -2.61,6.16 -2.50,6.14 -2.40,6.15 -2.29,6.16 -2.19,6.21 -2.10,6.26 -2.02,6.33 -1.94,6.40 -1.90,6.50 -1.85,6.59 -1.83,6.70 -1.81,6.80 -1.81,6.80 -1.81,6.80 -1.77,8.53 -1.72,10.26 -1.76,10.35 -1.79,10.44 -1.85,10.52 -1.91,10.60 -1.98,10.67 -2.05,10.73 -2.14,10.77 -2.23,10.82 -2.32,10.84 -2.42,10.86 -2.52,10.86 -2.62,10.86 -2.71,10.83 -2.80,10.81 -2.89,10.76 -2.98,10.71 -3.05,10.65 -3.12,10.58 -3.17,10.50 -3.23,10.42 -3.26,10.33 -3.29,10.24 -3.30,10.14 -3.31,10.04 -3.30,9.94 -3.29,9.85 -3.25,9.38 -3.21,8.91 -2.56,6.45 -1.90,3.99 -1.60,2.87 -1.30,1.75 -0.97,0.80 -0.63,-0.14 -0.61,-0.22 -0.58,-0.29 -0.54,-0.36 -0.49,-0.42 -0.43,-0.48 -0.38,-0.53 -0.31,-0.57 -0.24,-0.61 -0.16,-0.63 -0.08,-0.65 -0.01,-0.65 0.06,-0.65 0.14,-0.63 0.22,-0.61 0.29,-0.58 0.36,-0.54 0.42,-0.49 0.48,-0.44 0.53,-0.37 0.57,-0.31 0.60,-0.24 0.63,-0.16 0.64,-0.08 0.65,-0.01 0.64,0.06 0.63,0.14 0.63,0.14 L 0.63,0.14 Z"></path></g><g transform="translate(478.9823704802888 119.66279158041635) rotate(0 -0.7166220047134289 1.209760619580834)" stroke="none"><path fill="#1e1e1e" d="M 0.56,0.32 Q 0.56,0.32 -0.14,1.57 -0.86,2.81 -0.93,2.89 -0.99,2.97 -1.08,3.03 -1.17,3.09 -1.28,3.11 -1.38,3.13 -1.49,3.13 -1.59,3.12 -1.69,3.07 -1.79,3.03 -1.87,2.96 -1.94,2.89 -2.00,2.79 -2.05,2.70 -2.07,2.60 -2.08,2.49 -2.07,2.39 -2.05,2.28 -2.01,2.19 -1.96,2.09 -1.88,2.02 -1.81,1.94 -1.71,1.90 -1.62,1.85 -1.51,1.84 -1.40,1.82 -1.30,1.84 -1.20,1.87 -1.10,1.92 -1.01,1.97 -0.94,2.05 -0.87,2.13 -0.83,2.23 -0.79,2.33 -0.78,2.43 -0.77,2.54 -0.80,2.64 -0.83,2.74 -0.89,2.83 -0.94,2.92 -1.03,2.99 -1.11,3.05 -1.21,3.09 -1.31,3.13 -1.42,3.13 -1.52,3.13 -1.62,3.10 -1.73,3.07 -1.81,3.00 -1.90,2.94 -1.96,2.85 -2.02,2.77 -2.05,2.66 -2.08,2.56 -2.08,2.46 -2.07,2.35 -2.03,2.25 -2.00,2.15 -2.00,2.15 -2.00,2.15 -1.28,0.91 -0.56,-0.32 -0.52,-0.39 -0.47,-0.45 -0.41,-0.50 -0.35,-0.55 -0.27,-0.58 -0.20,-0.62 -0.13,-0.63 -0.05,-0.65 0.02,-0.65 0.10,-0.64 0.18,-0.62 0.25,-0.60 0.32,-0.56 0.39,-0.52 0.45,-0.47 0.50,-0.41 0.55,-0.34 0.59,-0.28 0.61,-0.20 0.64,-0.13 0.64,-0.05 0.65,0.02 0.64,0.10 0.63,0.18 0.59,0.25 0.56,0.32 0.56,0.32 L 0.56,0.32 Z"></path></g><g transform="translate(491.09938201791755 118.9434768284217) rotate(0 7.133438775884542 15.105609791887844)" stroke="none"><path fill="#1e1e1e" d="M 0.66,0.06 Q 0.66,0.06 0.59,2.54 0.53,5.02 0.19,8.80 -0.14,12.58 -0.57,16.29 -1.00,19.99 -1.15,22.91 -1.30,25.83 -0.86,27.06 -0.43,28.29 -0.45,28.44 -0.48,28.58 -0.54,28.71 -0.60,28.85 -0.69,28.96 -0.78,29.08 -0.89,29.17 -1.01,29.26 -1.14,29.32 -1.27,29.38 -1.42,29.40 -1.56,29.43 -1.71,29.42 -1.85,29.41 -1.99,29.37 -2.13,29.33 -2.26,29.25 -2.38,29.18 -2.48,29.07 -2.59,28.97 -2.66,28.84 -2.74,28.72 -2.78,28.58 -2.83,28.44 -2.84,28.30 -2.84,28.15 -1.75,27.20 -0.65,26.26 0.31,24.27 1.29,22.28 2.47,19.84 3.65,17.40 4.71,15.80 5.77,14.20 7.24,14.15 8.71,14.11 9.39,15.60 10.07,17.09 10.46,19.33 10.84,21.57 11.11,22.82 11.37,24.08 12.14,24.18 12.91,24.27 14.80,22.81 16.69,21.35 16.78,21.29 16.87,21.23 16.98,21.21 17.08,21.18 17.18,21.19 17.29,21.20 17.39,21.24 17.48,21.28 17.56,21.36 17.64,21.43 17.69,21.52 17.75,21.61 17.77,21.72 17.78,21.82 17.77,21.93 17.75,22.03 17.71,22.13 17.66,22.22 17.58,22.30 17.51,22.37 17.41,22.42 17.32,22.46 17.21,22.48 17.11,22.49 17.00,22.47 16.90,22.45 16.81,22.40 16.71,22.35 16.64,22.27 16.57,22.19 16.53,22.09 16.49,21.99 16.48,21.89 16.47,21.78 16.50,21.68 16.53,21.57 16.58,21.48 16.64,21.39 16.72,21.33 16.81,21.26 16.91,21.23 17.01,21.19 17.11,21.19 17.22,21.19 17.32,21.22 17.42,21.25 17.51,21.31 17.60,21.37 17.66,21.46 17.72,21.55 17.75,21.65 17.78,21.75 17.78,21.86 17.77,21.96 17.74,22.06 17.70,22.16 17.63,22.24 17.56,22.33 17.56,22.33 17.56,22.33 15.28,24.13 13.00,25.94 11.64,25.78 10.29,25.61 9.44,23.77 8.59,21.93 8.30,19.90 8.00,17.86 7.50,16.70 7.00,15.53 6.21,16.89 5.42,18.24 4.28,20.72 3.13,23.20 1.91,25.62 0.68,28.03 0.12,28.16 -0.43,28.29 -0.45,28.44 -0.48,28.58 -0.54,28.71 -0.60,28.85 -0.69,28.96 -0.78,29.08 -0.89,29.17 -1.01,29.26 -1.14,29.32 -1.27,29.38 -1.42,29.40 -1.56,29.43 -1.71,29.42 -1.85,29.41 -1.99,29.37 -2.13,29.33 -2.26,29.25 -2.38,29.18 -2.48,29.07 -2.59,28.97 -2.66,28.84 -2.74,28.72 -2.78,28.58 -2.83,28.44 -2.84,28.30 -2.84,28.15 -3.31,26.96 -3.77,25.77 -3.56,22.74 -3.35,19.70 -2.85,16.03 -2.36,12.35 -1.93,8.59 -1.51,4.82 -1.08,2.37 -0.66,-0.06 -0.64,-0.14 -0.62,-0.22 -0.59,-0.29 -0.55,-0.36 -0.50,-0.42 -0.45,-0.48 -0.38,-0.53 -0.32,-0.58 -0.24,-0.61 -0.17,-0.64 -0.09,-0.65 -0.01,-0.66 0.06,-0.65 0.14,-0.64 0.22,-0.62 0.29,-0.59 0.36,-0.55 0.42,-0.50 0.48,-0.44 0.53,-0.38 0.57,-0.31 0.61,-0.24 0.63,-0.17 0.65,-0.09 0.65,-0.01 0.66,0.06 0.66,0.06 L 0.66,0.06 Z"></path></g></svg>